<svg width="144" height="54" viewBox="0 0 144 54" fill="none" xmlns="http://www.w3.org/2000/svg">
<path fill-rule="evenodd" clip-rule="evenodd" d="M18.7245 20.4158V23.3297H17.8655C17.7368 22.8919 17.614 22.5363 17.4942 22.2662C17.3745 21.9962 17.2489 21.792 17.1171 21.6506C16.9853 21.5089 16.8326 21.4104 16.6562 21.351C16.4795 21.2951 16.2492 21.2656 15.9647 21.2656H13.3933V26.5141H15.2011C15.4585 26.5141 15.6593 26.4646 15.8058 26.3723C15.9523 26.28 16.0721 26.1222 16.1679 25.9049C16.2667 25.6877 16.3566 25.3486 16.4462 24.8908H17.2694V28.964H16.4462C16.3563 28.5261 16.2636 28.1967 16.1648 27.9729C16.0659 27.7522 15.9462 27.5944 15.8085 27.5021C15.6709 27.4098 15.4674 27.3603 15.2008 27.3603H13.3929V31.1435C13.3929 31.5289 13.4139 31.8381 13.4557 32.0687C13.4945 32.2993 13.5635 32.4836 13.6562 32.6185C13.7488 32.7533 13.8748 32.8556 14.0333 32.9215C14.1919 32.9905 14.3864 33.0533 14.6201 33.1092V33.5835H10.7258V33.1092C11.0909 33.0073 11.3336 32.8951 11.4561 32.7667C11.5789 32.6414 11.6596 32.4637 11.6956 32.2334C11.7344 32.0028 11.7526 31.6473 11.7526 31.1733V22.8267C11.7526 22.3853 11.7375 22.0593 11.7107 21.8586C11.6808 21.6544 11.6328 21.4996 11.5642 21.3843C11.4983 21.2724 11.4084 21.1835 11.2979 21.1142C11.187 21.0483 10.9955 20.9725 10.7261 20.8905V20.4162H18.7242L18.7245 20.4158ZM139.402 50.6509C139.191 50.5349 138.953 50.4371 138.719 50.4059C138.523 50.3798 138.302 50.4001 138.152 50.5445C138.002 50.6894 137.98 50.9045 138.006 51.1012C138.009 51.1231 138.024 51.1406 138.045 51.1465C138.067 51.1523 138.089 51.1454 138.102 51.1283C138.131 51.0919 138.166 51.06 138.204 51.0332C138.564 50.7813 139.254 50.9903 139.627 51.1293C139.686 51.1513 139.745 51.1743 139.803 51.1993C139.822 51.2079 139.843 51.2048 139.859 51.1914C139.875 51.178 139.882 51.1578 139.878 51.1372C139.863 51.0747 139.849 51.0123 139.837 50.9495C139.755 50.5322 139.646 49.6945 140.088 49.4464C140.108 49.4354 140.118 49.4151 140.116 49.3932C140.113 49.3709 140.099 49.3534 140.078 49.3469C139.888 49.2889 139.672 49.2755 139.505 49.3994C139.337 49.5232 139.281 49.7374 139.274 49.9357C139.266 50.1712 139.323 50.4224 139.402 50.6506V50.6509ZM133.023 50.7285C133.044 50.8249 133.002 50.9045 133.054 51.0023C133.081 51.0545 133.123 51.0964 133.173 51.1204C133.247 51.1561 133.351 51.1447 133.419 51.1091C133.551 51.0394 133.604 50.8328 133.591 50.6832L134.331 51.2398C134.247 51.2827 134.163 51.3232 134.077 51.3596C133.624 51.55 132.655 51.8115 132.619 50.9347C132.616 50.8469 132.626 50.7573 132.666 50.6828C132.726 50.5723 132.952 50.3973 133.023 50.7285H133.023ZM135.389 45.3307C135.53 45.3544 135.665 45.4161 135.763 45.5229C135.879 45.6515 135.951 45.8166 135.997 45.9824C136.099 46.3557 136.001 46.713 135.823 47.0483C135.717 47.084 135.607 47.1104 135.496 47.1238C135.247 47.1529 134.981 47.1121 134.773 46.9669C134.381 46.6934 134.13 46.0606 134.424 45.6361C134.485 45.5476 134.558 45.4645 134.652 45.412C134.698 45.3866 134.746 45.3691 134.797 45.3564C134.963 45.3152 135.225 45.3029 135.39 45.3303L135.389 45.3307ZM135.013 50.096C135.033 50.1063 135.053 50.1187 135.07 50.1276C135.094 50.1403 135.118 50.1509 135.145 50.1574C135.225 50.1773 135.31 50.1773 135.391 50.1588C135.672 50.0943 135.845 49.8524 135.864 49.5727C135.871 49.4807 135.763 49.4361 135.695 49.4965C135.664 49.5246 135.625 49.5469 135.582 49.5373C135.488 49.5164 135.406 49.3609 135.392 49.2734C135.367 49.1176 135.372 48.9574 135.381 48.8005C135.399 48.492 135.513 48.214 135.663 47.9481C135.67 47.9381 135.677 47.9282 135.685 47.9179C135.659 48.1118 135.641 48.3263 135.719 48.5061C135.856 48.8235 136.254 48.9594 136.556 48.793C136.848 48.633 136.991 48.2494 136.81 47.956C136.828 47.9755 136.848 47.9934 136.87 48.0092C137.151 48.212 137.545 48.095 137.724 47.8142C137.91 47.5239 137.801 47.1172 137.495 46.9594C137.32 46.8698 137.105 46.8729 136.91 46.8856C136.92 46.8791 136.931 46.8726 136.941 46.866C137.217 46.7339 137.502 46.6392 137.811 46.6423C137.968 46.6437 138.128 46.6495 138.282 46.6845C138.334 46.6965 138.395 46.7298 138.437 46.7621C138.525 46.8293 138.576 46.912 138.484 47.0019C138.419 47.0654 138.456 47.1763 138.549 47.1759C138.829 47.1756 139.082 47.0191 139.165 46.7435C139.189 46.6643 139.195 46.5795 139.181 46.4978C139.18 46.4923 139.178 46.4868 139.177 46.4813C139.172 46.4604 139.164 46.4405 139.156 46.4209C139.148 46.4031 139.137 46.3825 139.128 46.3619C139.287 46.2981 139.419 46.1886 139.576 46.1238C139.593 46.1166 139.61 46.1076 139.626 46.0973C139.733 46.0266 139.768 45.9 139.628 45.8382C139.053 45.5836 138.436 45.8019 137.864 45.945C137.808 45.9587 137.624 46.026 137.573 46.0184C137.546 45.9831 137.524 45.8375 137.484 45.783C137.389 45.6529 137.234 45.5572 137.076 45.5283C136.949 45.505 136.81 45.529 136.706 45.6087C136.685 45.6248 136.667 45.6433 136.659 45.6694C136.637 45.7394 136.694 45.7874 136.746 45.8207C137.057 46.0167 136.844 46.4312 136.605 46.5843C136.494 46.655 136.382 46.7243 136.267 46.7881C136.302 46.666 136.329 46.5417 136.346 46.4151C136.4 45.9968 136.294 45.5222 135.958 45.2425C135.829 45.1358 135.675 45.0644 135.514 45.0256C135.435 45.0067 135.355 44.9954 135.275 44.9916C135.122 44.9841 134.968 45.0077 134.824 45.0561C134.44 45.1852 134.105 45.4995 134.046 45.9127C134.037 45.9731 134.032 46.0352 134.027 46.0963C134.023 46.157 134.019 46.2188 134.018 46.2799C134.016 46.3605 134.022 46.4415 134.036 46.5208C134.063 46.6848 134.125 46.8434 134.222 46.9783C134.479 47.3324 134.945 47.4707 135.366 47.4443C135.418 47.4409 135.47 47.4357 135.522 47.4288C135.484 47.4838 135.444 47.5383 135.404 47.5925C135.235 47.8208 134.808 48.0068 134.632 47.6828C134.603 47.6282 134.559 47.5678 134.487 47.585C134.461 47.5915 134.441 47.6076 134.423 47.6279C134.337 47.726 134.304 47.863 134.319 47.9913C134.337 48.1512 134.422 48.3129 134.546 48.4162C134.597 48.4594 134.741 48.4917 134.775 48.5208C134.779 48.5723 134.699 48.7514 134.682 48.8057C134.501 49.3678 134.241 49.9666 134.457 50.5589C134.475 50.6073 134.508 50.6509 134.562 50.6578C134.642 50.6677 134.713 50.5912 134.745 50.526C134.821 50.374 134.939 50.2491 135.013 50.0953L135.013 50.096ZM136.755 47.886C136.739 47.8698 136.722 47.8547 136.705 47.8407C136.611 47.7679 136.487 47.7346 136.37 47.7528C136.255 47.7707 136.126 47.8441 136.085 47.9584C136.061 48.027 136.061 48.1207 136.098 48.1852C136.123 48.2298 136.163 48.2648 136.211 48.2837C136.25 48.2988 136.286 48.2998 136.326 48.2926C136.352 48.2878 136.383 48.2779 136.41 48.2796C136.432 48.2813 136.487 48.2875 136.495 48.3142C136.506 48.3516 136.46 48.4179 136.433 48.4402C136.395 48.4711 136.346 48.4848 136.298 48.4906C136.197 48.503 136.091 48.4923 136.016 48.4162C135.834 48.2308 135.92 47.7604 135.981 47.5352C135.999 47.4697 136.02 47.4045 136.042 47.3403C136.049 47.3269 136.056 47.3135 136.062 47.3002C136.146 47.2713 136.228 47.2394 136.309 47.2041C136.375 47.1862 136.441 47.1701 136.508 47.1567C136.637 47.1306 136.774 47.1142 136.906 47.1128C137.056 47.1114 137.277 47.1303 137.384 47.2504C137.455 47.3297 137.459 47.4371 137.44 47.5366C137.431 47.584 137.414 47.6324 137.38 47.6684C137.364 47.6859 137.338 47.702 137.317 47.7116C137.242 47.7446 137.222 47.713 137.222 47.6348C137.222 47.608 137.234 47.5778 137.24 47.5517C137.25 47.5122 137.252 47.4759 137.239 47.4364C137.223 47.3873 137.191 47.3451 137.148 47.317C137.087 47.2765 136.993 47.2696 136.923 47.2895C136.806 47.3225 136.724 47.446 136.699 47.5593C136.674 47.6701 136.695 47.7895 136.755 47.886H136.755ZM141.793 53.0473C141.697 52.9691 141.566 52.9625 141.47 53.0442C141.373 53.1259 141.358 53.2563 141.419 53.3644C141.464 53.4447 141.532 53.5123 141.605 53.5686C141.727 53.6636 141.902 53.7536 142.051 53.8023C142.069 53.8085 142.088 53.8047 142.103 53.792C142.117 53.7793 142.124 53.7615 142.121 53.7422C142.098 53.5878 142.038 53.4001 141.964 53.2642C141.92 53.1835 141.865 53.1053 141.793 53.0473ZM140.889 52.3579C141.101 52.4739 141.338 52.5717 141.572 52.6029C141.768 52.629 141.989 52.6087 142.139 52.4643C142.289 52.3194 142.311 52.1043 142.285 51.9076C142.282 51.8857 142.267 51.8682 142.246 51.8623C142.225 51.8565 142.203 51.8634 142.189 51.8805C142.16 51.9169 142.125 51.9488 142.087 51.9756C141.727 52.2275 141.037 52.0188 140.664 51.8795C140.605 51.8575 140.546 51.8345 140.488 51.8095C140.469 51.8009 140.448 51.804 140.432 51.8174C140.416 51.8308 140.409 51.851 140.414 51.8716C140.428 51.934 140.442 51.9965 140.454 52.0593C140.536 52.4766 140.645 53.3143 140.203 53.5624C140.183 53.5734 140.173 53.5936 140.175 53.6156C140.178 53.6379 140.192 53.6554 140.214 53.6619C140.403 53.7199 140.619 53.7333 140.787 53.6094C140.954 53.4855 141.01 53.2714 141.017 53.073C141.025 52.8376 140.968 52.5864 140.889 52.3582V52.3579ZM138.677 50.2305C138.774 50.3088 138.905 50.3153 139.001 50.2333C139.098 50.1516 139.113 50.0212 139.052 49.9131C139.006 49.8328 138.938 49.7652 138.866 49.7089C138.744 49.6138 138.569 49.5239 138.42 49.4752C138.402 49.469 138.383 49.4728 138.368 49.4855C138.353 49.4982 138.346 49.516 138.349 49.5353C138.373 49.6897 138.433 49.8771 138.506 50.0133C138.55 50.0939 138.605 50.1722 138.677 50.2302L138.677 50.2305ZM137.985 48.9416C138.197 49.0576 138.434 49.1554 138.668 49.1866C138.864 49.2127 139.085 49.1924 139.235 49.0479C139.385 48.9031 139.407 48.688 139.381 48.4913C139.378 48.4694 139.363 48.4522 139.342 48.446C139.321 48.4402 139.299 48.447 139.285 48.4642C139.256 48.5006 139.221 48.5325 139.183 48.5593C138.823 48.8112 138.133 48.6022 137.76 48.4632C137.701 48.4412 137.642 48.4182 137.584 48.3932C137.565 48.3846 137.544 48.3877 137.528 48.4011C137.512 48.4144 137.505 48.4347 137.51 48.4553C137.524 48.5177 137.538 48.5802 137.55 48.643C137.632 49.0603 137.741 49.898 137.299 50.1461C137.279 50.1571 137.269 50.1773 137.271 50.1993C137.274 50.2216 137.288 50.2391 137.31 50.2456C137.499 50.3036 137.715 50.317 137.883 50.1931C138.05 50.0692 138.106 49.8551 138.113 49.6564C138.121 49.421 138.064 49.1698 137.985 48.9416ZM137.582 51.9358C137.561 51.8407 137.533 51.7477 137.499 51.6561C137.414 51.4272 137.287 51.2106 137.117 51.0346C136.859 50.7679 136.543 50.6049 136.173 50.5634C135.648 50.5044 135.103 50.6983 134.655 50.9605L133.325 50.1461C133.325 50.1461 133.323 50.1451 133.322 50.1447C133.132 50.0411 132.917 50.0188 132.713 50.0984C132.489 50.1863 132.322 50.3805 132.248 50.6073C132.101 51.0562 132.35 51.617 132.801 51.7776C133.084 51.8781 133.399 51.8006 133.678 51.7278C133.678 51.7278 133.679 51.7275 133.68 51.7271C133.324 52.0542 133.037 52.2837 132.49 52.374C132.279 52.4087 132.064 52.4371 131.85 52.421C131.764 52.4145 131.657 52.3689 131.585 52.3225C131.445 52.2326 131.367 52.1073 131.463 51.9498C131.516 51.8609 131.452 51.736 131.347 51.7546C130.958 51.8235 130.7 52.1273 130.678 52.5195C130.671 52.6386 130.689 52.7601 130.732 52.8716C130.737 52.8846 130.743 52.8977 130.749 52.91C130.757 52.9251 130.765 52.9395 130.774 52.954C130.799 52.9941 130.832 53.037 130.857 53.0806C130.657 53.2124 130.515 53.4124 130.321 53.5497C130.176 53.6523 130.108 53.8692 130.327 53.9327C131.162 54.1743 131.899 53.7141 132.621 53.3651C132.649 53.3517 132.676 53.3345 132.703 53.3191C132.741 53.2978 132.778 53.2762 132.816 53.2563C132.845 53.2405 132.963 53.1808 132.993 53.1873C133.017 53.2014 133.072 53.3143 133.086 53.3421C133.113 53.397 133.151 53.4797 133.193 53.5229C133.348 53.6818 133.576 53.7917 133.799 53.7978C133.972 53.8026 134.145 53.735 134.254 53.5978C134.274 53.5717 134.29 53.5446 134.292 53.5106C134.298 53.421 134.217 53.3733 134.147 53.3407C134.026 53.2848 133.933 53.1973 133.879 53.0754C133.746 52.7817 133.868 52.3538 134.083 52.1279C134.216 51.9883 134.362 51.8603 134.517 51.7456C134.843 51.5044 135.23 51.3054 135.626 51.2106C135.96 51.131 136.334 51.119 136.648 51.2765C137.11 51.5082 137.267 52.0181 137.301 52.5003C137.188 52.863 137.173 53.233 136.861 53.4962H136.861C136.861 53.4962 136.86 53.4965 136.86 53.4969C136.86 53.4969 136.859 53.4969 136.859 53.4972L136.856 53.4982C136.856 53.4982 136.856 53.4982 136.856 53.4982C136.749 53.5339 136.622 53.4989 136.555 53.407C136.544 53.3919 136.535 53.3754 136.527 53.3586C136.494 53.2875 136.483 53.201 136.47 53.1242C136.459 53.0569 136.446 52.9893 136.419 52.9262C136.315 52.6815 136.008 52.584 135.777 52.7052C135.717 52.7367 135.666 52.782 135.628 52.8387C135.506 53.0236 135.521 53.2721 135.605 53.4691C135.648 53.5703 135.711 53.6654 135.792 53.7402C135.84 53.7841 135.893 53.8208 135.95 53.8503C136.239 53.9996 136.603 53.9533 136.894 53.838C137.127 53.7457 137.38 53.5813 137.53 53.3658C137.578 53.5346 137.673 53.6829 137.806 53.804C137.877 53.8678 137.978 53.9402 138.067 53.9773C138.089 53.9866 138.114 53.9807 138.13 53.9622C138.145 53.9437 138.147 53.9183 138.134 53.8977C137.934 53.5857 137.831 53.2275 137.861 52.8568C137.87 52.747 137.89 52.6365 137.923 52.5315C137.935 52.4927 137.951 52.4481 137.968 52.4114C137.969 52.4107 137.969 52.41 137.969 52.409C138.079 52.1585 138.261 51.9831 138.514 51.8815C138.594 51.8496 138.677 51.8263 138.762 51.8102C139.038 51.757 139.338 51.7752 139.614 51.8242C139.748 51.8479 139.897 51.8812 140.026 51.9255C140.05 51.934 140.077 51.9244 140.09 51.9025C140.103 51.8805 140.1 51.8527 140.081 51.8349C140.02 51.7758 139.945 51.7185 139.877 51.6688C139.716 51.5538 139.54 51.455 139.356 51.385C138.797 51.1725 138.268 51.2618 137.821 51.6681C137.732 51.7487 137.653 51.8383 137.582 51.9351L137.582 51.9358ZM140.801 49.1636C140.755 49.1931 140.71 49.2247 140.668 49.2587C140.195 49.6317 140.019 50.1413 140.136 50.7257C140.174 50.9193 140.243 51.1091 140.33 51.2861C140.367 51.3623 140.411 51.4454 140.46 51.5154C140.474 51.5367 140.501 51.5449 140.525 51.5349C140.549 51.5253 140.563 51.501 140.558 51.4756C140.535 51.341 140.528 51.1887 140.526 51.0531C140.523 50.7731 140.555 50.4735 140.652 50.2099C140.78 49.8668 141.008 49.6183 141.374 49.527C141.375 49.527 141.376 49.5267 141.376 49.5263C141.415 49.5147 141.462 49.5068 141.502 49.5013C141.611 49.4862 141.724 49.4841 141.833 49.4934C142.206 49.5246 142.539 49.6845 142.815 49.9344C142.833 49.9505 142.858 49.9532 142.879 49.9409C142.9 49.9285 142.91 49.9052 142.905 49.8815C142.883 49.7878 142.828 49.676 142.777 49.596C142.679 49.4429 142.547 49.3242 142.387 49.249C142.656 49.1087 142.855 48.7933 142.952 48.5256C143.079 48.177 143.104 47.7302 142.835 47.4391C142.761 47.3582 142.666 47.2947 142.564 47.2518C142.367 47.168 142.118 47.1522 141.934 47.2748C141.877 47.3125 141.832 47.3633 141.8 47.4234C141.679 47.6547 141.776 47.9615 142.021 48.0654C142.085 48.0922 142.152 48.1056 142.219 48.1169C142.313 48.1327 142.424 48.1451 142.502 48.202C142.594 48.2686 142.629 48.3959 142.593 48.5023C142.585 48.528 142.573 48.5524 142.559 48.5757C142.455 48.7484 142.217 48.8352 142.03 48.8777C141.841 48.9206 141.591 48.9436 141.398 48.9193H141.397C140.99 48.8304 140.621 48.6234 140.418 48.2466C140.223 47.8815 140.236 47.4498 140.353 47.0623C140.508 46.5527 140.841 46.0939 141.223 45.7298C141.343 45.6159 141.512 45.5356 141.671 45.4975C141.974 45.4251 142.295 45.4879 142.436 45.7933C142.469 45.8633 142.517 45.9443 142.606 45.9384C142.64 45.9364 142.667 45.9206 142.693 45.9004C142.831 45.7916 142.898 45.6183 142.893 45.4456C142.887 45.2229 142.777 44.9944 142.618 44.8396C142.575 44.7974 142.493 44.7596 142.438 44.7325C142.41 44.7188 142.297 44.6642 142.284 44.6416C142.276 44.6097 142.336 44.492 142.352 44.4624C142.372 44.4244 142.393 44.3873 142.415 44.3502C142.43 44.3235 142.447 44.2957 142.461 44.2675C142.81 43.5455 143.27 42.8094 143.028 41.9744C142.965 41.7555 142.748 41.8227 142.645 41.9679C142.508 42.1621 142.308 42.3039 142.176 42.5043C142.133 42.4796 142.09 42.4453 142.049 42.4206C142.023 42.4044 141.996 42.39 141.967 42.379C141.856 42.3365 141.734 42.3183 141.615 42.3248C141.223 42.3468 140.919 42.6052 140.85 42.9937C140.831 43.0994 140.956 43.1635 141.045 43.11C141.108 43.0719 141.176 43.0541 141.248 43.0798C141.39 43.1316 141.505 43.355 141.516 43.4978C141.532 43.7119 141.504 43.9268 141.469 44.1375C141.381 44.6697 141.146 44.971 140.822 45.3266C140.822 45.3262 140.822 45.3259 140.822 45.3252C140.895 45.0462 140.973 44.7308 140.872 44.4487C140.711 43.9974 140.151 43.7483 139.702 43.8955C139.447 43.9793 139.23 44.1814 139.161 44.4449C139.116 44.6152 139.14 44.7902 139.224 44.9446C139.258 45.0074 139.303 45.064 139.356 45.1121C139.481 45.2253 139.651 45.2933 139.82 45.295C139.974 45.2967 140.175 45.2363 140.252 45.0918C140.297 45.0067 140.307 44.8849 140.264 44.797C140.234 44.7353 140.182 44.6848 140.122 44.6529C140.067 44.6241 140.016 44.6182 139.955 44.6203C139.915 44.6217 139.874 44.6261 139.834 44.6179C139.79 44.6083 139.691 44.5819 139.686 44.5232C139.681 44.4638 139.755 44.3876 139.803 44.3619C139.87 44.3259 139.952 44.3187 140.027 44.3214C140.211 44.329 140.395 44.3811 140.5 44.5441C140.614 44.7212 140.601 44.9751 140.565 45.1735C140.533 45.353 140.475 45.5349 140.404 45.703C140.369 45.7871 140.329 45.8691 140.288 45.9505C139.685 46.7727 139.286 47.947 140.129 48.7645C140.319 48.9484 140.552 49.0785 140.8 49.1643L140.801 49.1636ZM139.403 3.34943C139.191 3.46542 138.953 3.56323 138.72 3.59446C138.523 3.62054 138.302 3.60029 138.153 3.45581C138.003 3.31099 137.98 3.09582 138.006 2.89918C138.009 2.87722 138.024 2.86006 138.046 2.85389C138.067 2.84805 138.089 2.85491 138.103 2.87207C138.132 2.90845 138.166 2.94037 138.204 2.96713C138.564 3.21902 139.255 3.01003 139.628 2.87104C139.687 2.84908 139.745 2.82609 139.803 2.80104C139.822 2.79246 139.844 2.79555 139.86 2.80893C139.876 2.82231 139.883 2.84256 139.878 2.86315C139.863 2.92561 139.849 2.98807 139.837 3.05087C139.755 3.46817 139.646 4.30586 140.089 4.55397C140.108 4.56495 140.118 4.5852 140.116 4.60716C140.114 4.62947 140.099 4.64697 140.078 4.65349C139.888 4.71149 139.672 4.72487 139.505 4.60099C139.338 4.4771 139.281 4.26296 139.274 4.06461C139.266 3.82919 139.323 3.57798 139.403 3.34977V3.34943ZM133.024 3.27187C133.044 3.17544 133.003 3.09582 133.054 2.99802C133.081 2.94586 133.124 2.90399 133.173 2.87997C133.247 2.84428 133.351 2.8556 133.419 2.89129C133.551 2.96096 133.604 3.16755 133.591 3.31717L134.332 2.76054C134.248 2.71764 134.163 2.67715 134.077 2.64077C133.624 2.45031 132.655 2.18881 132.62 3.06562C132.616 3.15348 132.627 3.24305 132.666 3.31751C132.726 3.42802 132.952 3.60304 133.023 3.27187H133.024ZM135.39 8.66967C135.53 8.64599 135.666 8.58422 135.763 8.47749C135.88 8.3488 135.951 8.18373 135.997 8.01798C136.1 7.6446 136.001 7.28736 135.824 6.95208C135.717 6.91639 135.607 6.88996 135.496 6.87658C135.247 6.84741 134.981 6.8879 134.773 7.03341C134.382 7.30692 134.13 7.93973 134.424 8.36424C134.485 8.45278 134.558 8.53583 134.652 8.58833C134.698 8.61373 134.747 8.63123 134.797 8.64393C134.963 8.68511 135.225 8.69746 135.39 8.67001L135.39 8.66967ZM135.013 3.90434C135.033 3.89405 135.053 3.88169 135.07 3.87277C135.094 3.86007 135.119 3.84943 135.145 3.84291C135.226 3.82301 135.311 3.82301 135.392 3.84154C135.672 3.90606 135.845 4.148 135.864 4.42768C135.871 4.51965 135.763 4.56427 135.695 4.50387C135.664 4.47573 135.625 4.45342 135.582 4.46337C135.488 4.48431 135.406 4.63977 135.392 4.72728C135.368 4.88308 135.373 5.04334 135.382 5.20017C135.399 5.50868 135.513 5.78666 135.663 6.05262C135.671 6.06257 135.678 6.07252 135.685 6.08282C135.659 5.88892 135.642 5.67444 135.719 5.49461C135.856 5.17718 136.254 5.04128 136.557 5.20772C136.848 5.36764 136.991 5.75131 136.81 6.04472C136.828 6.02516 136.849 6.00732 136.871 5.99153C137.151 5.78871 137.545 5.90574 137.725 6.18645C137.911 6.47678 137.802 6.88344 137.495 7.0413C137.321 7.13087 137.105 7.12778 136.91 7.11509C136.921 7.12161 136.931 7.12813 136.942 7.13465C137.217 7.26677 137.502 7.36148 137.811 7.3584C137.968 7.35702 138.128 7.35119 138.282 7.31619C138.334 7.30417 138.395 7.27089 138.438 7.23863C138.526 7.17137 138.577 7.08866 138.485 6.99875C138.42 6.93526 138.457 6.82442 138.549 6.82476C138.829 6.8251 139.082 6.98159 139.165 7.25716C139.189 7.33643 139.195 7.4212 139.181 7.50287C139.18 7.50836 139.179 7.51385 139.177 7.51935C139.172 7.54028 139.165 7.56018 139.156 7.57974C139.148 7.59759 139.137 7.61818 139.128 7.63877C139.287 7.7026 139.419 7.81207 139.576 7.87693C139.593 7.88414 139.61 7.89306 139.626 7.90336C139.734 7.97405 139.768 8.10068 139.629 8.16245C139.054 8.41709 138.437 8.19883 137.864 8.05573C137.809 8.042 137.625 7.97474 137.573 7.98229C137.547 8.01763 137.524 8.16314 137.485 8.21771C137.39 8.34777 137.234 8.44351 137.076 8.47234C136.949 8.49568 136.81 8.47165 136.706 8.39204C136.685 8.37591 136.667 8.35738 136.659 8.3313C136.637 8.26129 136.695 8.21324 136.747 8.17996C137.057 7.984 136.844 7.56945 136.605 7.41639C136.494 7.3457 136.382 7.27638 136.267 7.21255C136.303 7.33472 136.33 7.45895 136.346 7.58558C136.401 8.00391 136.294 8.47852 135.958 8.75821C135.83 8.86493 135.676 8.93631 135.514 8.97509C135.436 8.99397 135.356 9.00529 135.275 9.00907C135.123 9.01662 134.969 8.99294 134.824 8.94455C134.44 8.81552 134.106 8.50117 134.046 8.08799C134.038 8.02759 134.033 7.96547 134.028 7.90439C134.023 7.84365 134.02 7.78187 134.018 7.72079C134.017 7.64014 134.022 7.55915 134.036 7.47988C134.064 7.31584 134.125 7.1573 134.223 7.02243C134.479 6.66827 134.945 6.52997 135.367 6.5564C135.419 6.55983 135.47 6.56498 135.522 6.57184C135.484 6.51693 135.444 6.46237 135.404 6.40815C135.235 6.17993 134.808 5.99393 134.633 6.31789C134.603 6.37245 134.559 6.43285 134.488 6.4157C134.461 6.40917 134.441 6.39305 134.424 6.3728C134.337 6.27465 134.304 6.13772 134.319 6.00938C134.337 5.84946 134.422 5.68782 134.546 5.58453C134.597 5.54129 134.741 5.50903 134.775 5.47986C134.779 5.42838 134.7 5.24924 134.682 5.19502C134.501 4.6329 134.241 4.03406 134.457 3.44174C134.475 3.39336 134.508 3.34977 134.563 3.34291C134.642 3.33296 134.713 3.40948 134.746 3.47469C134.821 3.62671 134.939 3.75163 135.013 3.90537L135.013 3.90434ZM136.755 6.11439C136.74 6.13052 136.723 6.14596 136.705 6.15969C136.611 6.23244 136.488 6.26573 136.37 6.24754C136.255 6.22969 136.126 6.15626 136.086 6.04198C136.061 5.97334 136.062 5.87966 136.098 5.81514C136.124 5.77053 136.163 5.73552 136.211 5.71665C136.25 5.70155 136.286 5.70052 136.326 5.70773C136.353 5.71253 136.384 5.72248 136.41 5.72077C136.432 5.71905 136.487 5.71287 136.495 5.68611C136.507 5.6487 136.461 5.58247 136.433 5.56016C136.395 5.52927 136.346 5.51555 136.298 5.51006C136.197 5.4977 136.091 5.50834 136.016 5.58453C135.834 5.76984 135.92 6.24033 135.981 6.46546C135.999 6.531 136.02 6.59621 136.042 6.66038C136.049 6.67376 136.056 6.68715 136.062 6.70053C136.146 6.72936 136.228 6.76127 136.309 6.79628C136.375 6.81412 136.441 6.83025 136.508 6.84363C136.638 6.86972 136.774 6.88619 136.906 6.88756C137.056 6.88893 137.278 6.87006 137.385 6.74995C137.455 6.67067 137.459 6.56326 137.44 6.46374C137.431 6.41638 137.414 6.36799 137.381 6.33196C137.364 6.31446 137.339 6.29833 137.317 6.28872C137.242 6.25578 137.222 6.28735 137.222 6.36559C137.222 6.39236 137.234 6.42256 137.241 6.44864C137.251 6.4881 137.252 6.52448 137.24 6.56395C137.224 6.61302 137.192 6.65523 137.149 6.68337C137.087 6.72387 136.994 6.73073 136.923 6.71083C136.806 6.67788 136.724 6.55434 136.699 6.44109C136.674 6.33024 136.696 6.21082 136.755 6.11439H136.755ZM141.794 0.95304C141.697 1.03128 141.566 1.0378 141.47 0.956129C141.373 0.874453 141.358 0.744047 141.419 0.635947C141.465 0.555644 141.533 0.488038 141.605 0.431758C141.727 0.336698 141.902 0.246787 142.051 0.198056C142.069 0.191879 142.088 0.195654 142.103 0.208351C142.118 0.221049 142.125 0.238894 142.122 0.258111C142.098 0.41254 142.038 0.600257 141.964 0.736154C141.921 0.8168 141.865 0.895044 141.794 0.95304ZM140.889 1.64248C141.101 1.52649 141.339 1.42868 141.572 1.39745C141.769 1.37137 141.989 1.39162 142.139 1.53609C142.289 1.68091 142.312 1.89608 142.286 2.09272C142.283 2.11469 142.268 2.13185 142.246 2.13802C142.225 2.14386 142.203 2.13699 142.189 2.11983C142.16 2.08346 142.126 2.05154 142.088 2.02477C141.728 1.77288 141.037 1.98153 140.664 2.12086C140.605 2.14283 140.546 2.16582 140.489 2.19087C140.47 2.19945 140.448 2.19636 140.432 2.18298C140.416 2.16959 140.409 2.14935 140.414 2.12876C140.428 2.0663 140.442 2.00384 140.455 1.94104C140.536 1.52374 140.645 0.68605 140.203 0.437935C140.184 0.426953 140.173 0.406706 140.176 0.384743C140.178 0.362436 140.193 0.344935 140.214 0.338414C140.404 0.280418 140.62 0.267034 140.787 0.39092C140.954 0.514806 141.011 0.728947 141.018 0.927302C141.025 1.16272 140.969 1.41392 140.889 1.64213V1.64248ZM138.677 3.76982C138.774 3.69157 138.905 3.68505 139.001 3.76707C139.098 3.84875 139.113 3.97915 139.052 4.08726C139.007 4.16756 138.939 4.23516 138.866 4.29144C138.744 4.3865 138.569 4.47641 138.42 4.52515C138.402 4.53132 138.383 4.52755 138.368 4.51485C138.354 4.50215 138.347 4.48431 138.35 4.46509C138.373 4.31066 138.433 4.12329 138.507 3.98705C138.55 3.9064 138.606 3.82816 138.677 3.77016L138.677 3.76982ZM137.985 5.05878C138.197 4.94279 138.435 4.84498 138.668 4.81376C138.865 4.78767 139.085 4.80792 139.235 4.9524C139.385 5.09722 139.408 5.31239 139.382 5.50903C139.379 5.53099 139.364 5.54815 139.342 5.55433C139.321 5.56016 139.299 5.5533 139.285 5.53614C139.256 5.49976 139.222 5.46785 139.184 5.44108C138.824 5.18919 138.133 5.39818 137.76 5.53717C137.701 5.55913 137.642 5.58212 137.585 5.60718C137.566 5.61575 137.544 5.61267 137.528 5.59928C137.512 5.5859 137.505 5.56565 137.51 5.54506C137.524 5.4826 137.538 5.42015 137.551 5.35734C137.632 4.94004 137.741 4.10235 137.299 3.85424C137.28 3.84326 137.269 3.82301 137.272 3.80105C137.274 3.77874 137.289 3.76124 137.31 3.75472C137.5 3.69672 137.716 3.68334 137.883 3.80722C138.05 3.93111 138.107 4.14525 138.114 4.34361C138.122 4.57902 138.065 4.83023 137.985 5.05844V5.05878ZM137.583 2.06458C137.561 2.15964 137.534 2.25264 137.5 2.34427C137.414 2.57317 137.288 2.78971 137.117 2.96576C136.859 3.23241 136.543 3.39541 136.173 3.43694C135.648 3.49596 135.103 3.30207 134.655 3.03989L133.325 3.85424C133.325 3.85424 133.324 3.85527 133.323 3.85561C133.132 3.95925 132.917 3.98156 132.713 3.90194C132.489 3.81409 132.323 3.61985 132.248 3.39301C132.101 2.94414 132.351 2.38339 132.802 2.22279C133.084 2.12224 133.399 2.19979 133.678 2.27255C133.679 2.27255 133.679 2.27289 133.68 2.27323C133.324 1.94619 133.037 1.7166 132.49 1.62635C132.279 1.59169 132.065 1.5632 131.851 1.57933C131.765 1.58585 131.657 1.6315 131.585 1.67783C131.445 1.76774 131.368 1.893 131.463 2.05051C131.516 2.1394 131.453 2.26431 131.347 2.24578C130.959 2.1768 130.7 1.87309 130.678 1.48084C130.672 1.36176 130.69 1.24028 130.732 1.12875C130.737 1.1157 130.743 1.10266 130.749 1.09031C130.757 1.07521 130.765 1.0608 130.774 1.04638C130.799 1.00623 130.833 0.963335 130.858 0.919752C130.657 0.787973 130.515 0.587902 130.321 0.450632C130.176 0.348023 130.109 0.131137 130.328 0.0676494C131.163 -0.173946 131.899 0.286252 132.621 0.63526C132.649 0.648644 132.677 0.665803 132.704 0.681246C132.741 0.702523 132.778 0.724143 132.816 0.744047C132.846 0.759833 132.963 0.819545 132.993 0.813025C133.018 0.798955 133.072 0.68605 133.086 0.658253C133.113 0.603345 133.151 0.52064 133.193 0.4774C133.348 0.31851 133.577 0.208694 133.799 0.202517C133.972 0.197713 134.145 0.265318 134.254 0.402588C134.275 0.428669 134.29 0.45578 134.292 0.489754C134.298 0.579323 134.217 0.627024 134.147 0.659626C134.026 0.715563 133.934 0.803073 133.879 0.9249C133.747 1.21866 133.868 1.6466 134.083 1.87241C134.217 2.01208 134.363 2.14008 134.517 2.2547C134.844 2.49595 135.231 2.695 135.627 2.78971C135.96 2.86933 136.334 2.88134 136.648 2.72382C137.11 2.49218 137.267 1.98222 137.301 1.50006C137.188 1.13732 137.174 0.767383 136.862 0.504168H136.861C136.861 0.504168 136.861 0.503824 136.86 0.503481C136.86 0.503481 136.86 0.503481 136.859 0.503138L136.857 0.502109C136.857 0.502109 136.856 0.502109 136.856 0.502109C136.75 0.466418 136.622 0.501422 136.556 0.593393C136.545 0.608493 136.535 0.624965 136.527 0.641781C136.494 0.712818 136.484 0.799298 136.471 0.876169C136.459 0.943431 136.446 1.01104 136.419 1.07418C136.315 1.31886 136.009 1.41633 135.777 1.29519C135.717 1.26361 135.666 1.21831 135.628 1.16169C135.506 0.976719 135.522 0.728261 135.605 0.531278C135.648 0.430042 135.712 0.334983 135.793 0.26017C135.84 0.216244 135.893 0.179524 135.951 0.150011C136.239 0.000730335 136.603 0.0470589 136.895 0.162366C137.128 0.25468 137.38 0.41906 137.53 0.634574C137.578 0.465732 137.673 0.317481 137.807 0.19634C137.877 0.132509 137.978 0.0600996 138.067 0.0230367C138.09 0.013771 138.114 0.0196049 138.13 0.0384795C138.146 0.057011 138.147 0.0824059 138.134 0.102996C137.935 0.414942 137.831 0.773217 137.861 1.14385C137.87 1.25366 137.891 1.36416 137.924 1.46917C137.936 1.50795 137.951 1.55257 137.969 1.58929C137.969 1.58997 137.969 1.59066 137.97 1.59169C138.079 1.84221 138.262 2.01757 138.514 2.11915C138.594 2.15106 138.678 2.1744 138.762 2.19053C139.038 2.24372 139.339 2.22553 139.615 2.17646C139.749 2.15278 139.897 2.11949 140.026 2.07522C140.051 2.06664 140.077 2.07625 140.09 2.09821C140.104 2.12018 140.1 2.14797 140.082 2.16582C140.02 2.22485 139.946 2.28216 139.877 2.33192C139.717 2.44688 139.541 2.54571 139.356 2.61572C138.797 2.82815 138.269 2.73892 137.822 2.3326C137.733 2.25196 137.653 2.16239 137.582 2.06561L137.583 2.06458ZM140.801 4.83675C140.755 4.80724 140.711 4.77566 140.668 4.74169C140.196 4.36866 140.019 3.85904 140.136 3.27462C140.175 3.08107 140.243 2.89129 140.33 2.71421C140.367 2.63803 140.412 2.55498 140.46 2.48497C140.475 2.4637 140.501 2.45546 140.525 2.46541C140.549 2.47502 140.563 2.49939 140.558 2.52478C140.536 2.6593 140.528 2.81167 140.526 2.94723C140.523 3.22726 140.555 3.52685 140.653 3.79041C140.78 4.13358 141.009 4.38204 141.374 4.47333C141.375 4.47333 141.376 4.47367 141.377 4.47401C141.416 4.48568 141.462 4.49357 141.502 4.49906C141.612 4.51416 141.724 4.51622 141.834 4.50696C142.206 4.47573 142.539 4.31581 142.815 4.06598C142.833 4.04985 142.859 4.0471 142.88 4.05946C142.901 4.07181 142.911 4.09515 142.905 4.11883C142.883 4.21251 142.828 4.32439 142.777 4.40435C142.679 4.5574 142.547 4.67614 142.387 4.7513C142.656 4.89166 142.856 5.20703 142.953 5.47471C143.079 5.82338 143.104 6.27019 142.836 6.5612C142.761 6.64219 142.666 6.70568 142.565 6.74857C142.368 6.83231 142.119 6.8481 141.934 6.72558C141.878 6.68783 141.832 6.63704 141.801 6.57699C141.68 6.34569 141.777 6.03889 142.022 5.93491C142.085 5.90814 142.152 5.89476 142.22 5.88343C142.313 5.86765 142.424 5.85529 142.502 5.79832C142.595 5.73175 142.629 5.60443 142.594 5.49805C142.585 5.47231 142.574 5.44794 142.56 5.42461C142.455 5.25199 142.217 5.16517 142.03 5.12261C141.842 5.07972 141.591 5.05672 141.399 5.08109H141.398C140.99 5.16997 140.621 5.3769 140.419 5.75371C140.223 6.11885 140.236 6.55056 140.354 6.93801C140.508 7.44762 140.842 7.90645 141.224 8.27055C141.343 8.38449 141.512 8.46479 141.672 8.50288C141.974 8.57529 142.296 8.51249 142.437 8.20707C142.469 8.13706 142.517 8.05607 142.606 8.0619C142.64 8.06396 142.668 8.07941 142.694 8.1C142.831 8.20878 142.898 8.38209 142.894 8.5547C142.888 8.77742 142.778 9.00598 142.619 9.16075C142.575 9.20296 142.493 9.24071 142.438 9.26782C142.41 9.28155 142.297 9.33611 142.284 9.35876C142.277 9.39068 142.337 9.50839 142.352 9.5379C142.372 9.57599 142.394 9.61305 142.415 9.65012C142.43 9.67688 142.448 9.70468 142.461 9.73282C142.81 10.4549 143.27 11.191 143.029 12.0259C142.965 12.2449 142.748 12.1776 142.646 12.0324C142.508 11.8382 142.308 11.6965 142.176 11.4961C142.133 11.5208 142.09 11.5551 142.05 11.5798C142.023 11.5959 141.996 11.6103 141.967 11.6213C141.856 11.6639 141.734 11.6821 141.615 11.6755C141.223 11.6536 140.919 11.3952 140.85 11.0067C140.832 10.901 140.956 10.8368 141.045 10.8904C141.108 10.9284 141.177 10.9463 141.248 10.9205C141.391 10.8687 141.505 10.6453 141.516 10.5026C141.532 10.2884 141.504 10.0736 141.469 9.86289C141.381 9.33062 141.147 9.02931 140.823 8.67378C140.823 8.67413 140.823 8.67447 140.823 8.67516C140.895 8.95416 140.973 9.26954 140.872 9.55163C140.712 10.0029 140.151 10.252 139.702 10.1048C139.447 10.0211 139.231 9.81896 139.161 9.5554C139.116 9.38519 139.141 9.21017 139.224 9.05574C139.258 8.99294 139.303 8.93631 139.356 8.88827C139.481 8.77502 139.652 8.70707 139.821 8.70536C139.974 8.70364 140.176 8.76404 140.252 8.90852C140.297 8.99362 140.307 9.11545 140.264 9.2033C140.234 9.26508 140.183 9.31552 140.122 9.34744C140.067 9.37626 140.016 9.3821 139.955 9.38004C139.915 9.37867 139.874 9.37421 139.835 9.38244C139.79 9.39205 139.691 9.41847 139.686 9.47716C139.681 9.53653 139.756 9.61271 139.804 9.63845C139.871 9.67448 139.953 9.68169 140.028 9.67894C140.212 9.67139 140.396 9.61923 140.5 9.45622C140.614 9.27915 140.601 9.0252 140.565 8.82684C140.533 8.64736 140.475 8.46548 140.404 8.29732C140.369 8.21324 140.33 8.13123 140.288 8.04989C139.685 7.22765 139.286 6.0533 140.129 5.23586C140.32 5.05192 140.552 4.92186 140.801 4.83606L140.801 4.83675ZM3.69448 3.34909C3.90622 3.46508 4.14404 3.56288 4.3774 3.59411C4.57404 3.62019 4.7947 3.59995 4.94432 3.45547C5.09429 3.31065 5.11694 3.09548 5.09086 2.89884C5.08777 2.87688 5.07301 2.85972 5.05139 2.85354C5.03012 2.84771 5.00815 2.85457 4.99443 2.87173C4.96526 2.90811 4.93094 2.94002 4.89285 2.96679C4.53286 3.21868 3.84239 3.00969 3.46936 2.8707C3.41033 2.84874 3.35165 2.82574 3.294 2.80069C3.27478 2.79211 3.2535 2.7952 3.23737 2.80859C3.22124 2.82197 3.21438 2.84222 3.21918 2.86281C3.2336 2.92527 3.24767 2.98772 3.26002 3.05052C3.3417 3.46782 3.45083 4.30551 3.00847 4.55363C2.98891 4.56461 2.97862 4.58486 2.98102 4.60682C2.98342 4.62913 2.99784 4.64663 3.01911 4.65315C3.20889 4.71115 3.42475 4.72453 3.59222 4.60064C3.75934 4.47676 3.81597 4.26262 3.82283 4.06426C3.83072 3.82884 3.77375 3.57764 3.69448 3.34943V3.34909ZM10.0734 3.27153C10.0528 3.1751 10.0943 3.09548 10.0432 2.99768C10.0161 2.94551 9.97355 2.90365 9.92379 2.87962C9.84966 2.84393 9.74568 2.85526 9.67842 2.89095C9.54595 2.96061 9.49311 3.1672 9.50649 3.31683L8.76557 2.7602C8.84965 2.7173 8.93442 2.67681 9.02055 2.64043C9.4732 2.44997 10.4423 2.18847 10.4777 3.06528C10.4811 3.15313 10.4708 3.2427 10.431 3.31717C10.3713 3.42767 10.1451 3.60269 10.0741 3.27153H10.0734ZM7.70757 8.66932C7.56687 8.64564 7.43131 8.58387 7.33419 8.47715C7.21751 8.34845 7.14579 8.18339 7.10015 8.01763C6.99754 7.64426 7.09603 7.28702 7.27345 6.95173C7.37984 6.91604 7.48965 6.88962 7.60118 6.87624C7.84964 6.84707 8.1156 6.88756 8.32391 7.03307C8.71547 7.30658 8.96668 7.93939 8.67292 8.3639C8.61183 8.45244 8.53874 8.53549 8.44471 8.58799C8.39906 8.61339 8.35033 8.63089 8.29989 8.64359C8.13413 8.68477 7.87195 8.69712 7.70722 8.66967L7.70757 8.66932ZM8.08403 3.904C8.06413 3.8937 8.04422 3.88135 8.02672 3.87243C8.0027 3.85973 7.97833 3.84909 7.95191 3.84257C7.87126 3.82267 7.7865 3.82267 7.70551 3.8412C7.42513 3.90572 7.25183 4.14765 7.23261 4.42734C7.22609 4.51931 7.33419 4.56392 7.4018 4.50353C7.43303 4.47539 7.47181 4.45308 7.51505 4.46303C7.60873 4.48396 7.69109 4.63942 7.70482 4.72693C7.72953 4.88273 7.72438 5.043 7.71546 5.19983C7.69761 5.50834 7.58402 5.78631 7.43371 6.05227C7.42651 6.06223 7.4193 6.07218 7.41209 6.08247C7.43783 5.88858 7.45533 5.67409 7.37778 5.49427C7.24085 5.17683 6.84311 5.04094 6.54043 5.20738C6.24907 5.3673 6.10563 5.75097 6.28717 6.04438C6.26864 6.02482 6.24839 6.00697 6.22642 5.99119C5.94571 5.78837 5.55174 5.90539 5.37226 6.18611C5.18626 6.47644 5.29539 6.8831 5.60219 7.04096C5.77652 7.13053 5.99169 7.12744 6.18696 7.11474C6.17632 7.12126 6.16603 7.12778 6.15539 7.1343C5.87982 7.26643 5.59498 7.36114 5.28613 7.35805C5.12895 7.35668 4.96869 7.35085 4.81495 7.31584C4.76278 7.30383 4.70204 7.27054 4.65949 7.23828C4.57129 7.17102 4.5205 7.08832 4.61247 6.99841C4.67733 6.93492 4.64027 6.82407 4.54796 6.82442C4.26758 6.82476 4.01466 6.98125 3.93161 7.25682C3.90759 7.33609 3.90176 7.42085 3.91617 7.50253C3.9172 7.50802 3.91823 7.51351 3.9196 7.519C3.92475 7.53994 3.9323 7.55984 3.94088 7.5794C3.94877 7.59725 3.95976 7.61784 3.96868 7.63843C3.81013 7.70226 3.67767 7.81173 3.52083 7.87659C3.50368 7.8838 3.48686 7.89272 3.47107 7.90301C3.36332 7.97371 3.329 8.10034 3.46833 8.16211C4.04349 8.41675 4.66052 8.19849 5.23293 8.05538C5.28853 8.04166 5.47247 7.97439 5.5236 7.98194C5.55037 8.01729 5.57302 8.1628 5.61248 8.21736C5.70754 8.34743 5.863 8.44317 6.02121 8.472C6.14818 8.49533 6.28682 8.47131 6.39081 8.3917C6.41208 8.37557 6.42958 8.35703 6.43782 8.33095C6.45978 8.26095 6.40247 8.2129 6.35031 8.17961C6.04008 7.98366 6.25285 7.56911 6.49204 7.41605C6.60289 7.34536 6.71511 7.27603 6.83007 7.2122C6.79438 7.33437 6.76727 7.4586 6.7508 7.58523C6.69623 8.00356 6.80296 8.47818 7.13893 8.75786C7.26727 8.86459 7.42136 8.93597 7.58299 8.97475C7.66124 8.99362 7.74154 9.00495 7.82219 9.00872C7.97456 9.01627 8.1283 8.99259 8.27312 8.94421C8.65713 8.81517 8.99138 8.50082 9.05075 8.08764C9.05933 8.02724 9.06448 7.96513 9.06928 7.90404C9.07375 7.8433 9.07752 7.78153 9.07889 7.72045C9.08027 7.6398 9.07478 7.55881 9.06105 7.47954C9.03325 7.3155 8.97217 7.15695 8.87436 7.02208C8.61801 6.66793 8.15163 6.52963 7.73056 6.55605C7.6784 6.55949 7.62658 6.56463 7.57476 6.5715C7.61319 6.51659 7.65266 6.46202 7.69281 6.4078C7.86131 6.17959 8.2889 5.99359 8.46427 6.31755C8.49378 6.37211 8.53805 6.43251 8.60943 6.41535C8.6362 6.40883 8.65576 6.3927 8.67326 6.37246C8.75974 6.27431 8.79269 6.13738 8.77793 6.00903C8.75974 5.84911 8.67463 5.68748 8.55109 5.58418C8.49961 5.54094 8.35582 5.50868 8.32219 5.47951C8.31807 5.42804 8.39735 5.2489 8.41485 5.19468C8.59605 4.63256 8.85583 4.03372 8.63963 3.4414C8.62213 3.39301 8.58884 3.34943 8.53427 3.34257C8.455 3.33261 8.38362 3.40914 8.35136 3.47434C8.27621 3.62637 8.15816 3.75129 8.08369 3.90503L8.08403 3.904ZM6.34207 6.11404C6.35752 6.13017 6.37433 6.14562 6.39183 6.15934C6.48586 6.2321 6.60941 6.26538 6.72712 6.2472C6.84174 6.22935 6.97077 6.15591 7.01127 6.04163C7.03563 5.973 7.03529 5.87931 6.99891 5.8148C6.97352 5.77018 6.93371 5.73518 6.88566 5.7163C6.84723 5.70121 6.81085 5.70018 6.7707 5.70738C6.74428 5.71219 6.71339 5.72214 6.68662 5.72042C6.66466 5.71871 6.61009 5.71253 6.60186 5.68576C6.59053 5.64836 6.63652 5.58212 6.66363 5.55982C6.70172 5.52893 6.75114 5.5152 6.79884 5.50971C6.89973 5.49736 7.00612 5.508 7.08093 5.58418C7.26281 5.7695 7.17668 6.23999 7.11559 6.46511C7.09775 6.53066 7.07715 6.59586 7.05485 6.66004C7.04798 6.67342 7.04112 6.6868 7.0346 6.70019C6.95121 6.72901 6.86885 6.76093 6.78786 6.79593C6.72197 6.81378 6.65608 6.82991 6.58916 6.84329C6.45944 6.86937 6.3232 6.88584 6.19073 6.88722C6.04077 6.88859 5.81942 6.86972 5.71235 6.7496C5.64165 6.67033 5.63822 6.56292 5.6571 6.4634C5.66602 6.41604 5.68318 6.36765 5.71647 6.33162C5.7326 6.31412 5.75833 6.29799 5.77995 6.28838C5.85511 6.25543 5.87467 6.287 5.87501 6.36525C5.87501 6.39202 5.863 6.42222 5.85648 6.4483C5.84653 6.48776 5.84481 6.52414 5.85751 6.5636C5.8733 6.61268 5.90556 6.65489 5.94845 6.68303C6.01022 6.72352 6.10357 6.73039 6.17392 6.71048C6.2906 6.67754 6.37262 6.55399 6.39801 6.44075C6.42272 6.3299 6.40144 6.21048 6.34173 6.11404H6.34207ZM1.30324 0.952697C1.39967 1.03094 1.53076 1.03746 1.6272 0.955786C1.72363 0.87411 1.73907 0.743704 1.67764 0.635604C1.63234 0.555301 1.5644 0.487695 1.49199 0.431415C1.36982 0.336355 1.1948 0.246443 1.0462 0.197713C1.02767 0.191535 1.0088 0.19531 0.994039 0.208008C0.979283 0.220705 0.972419 0.23855 0.975508 0.257768C0.999187 0.412197 1.0589 0.599913 1.13268 0.735811C1.17626 0.816457 1.23186 0.8947 1.30324 0.952697ZM2.20785 1.64213C1.99611 1.52614 1.75829 1.42834 1.52493 1.39711C1.32829 1.37103 1.10763 1.39127 0.958006 1.53575C0.808038 1.68057 0.785389 1.89574 0.81147 2.09238C0.814559 2.11434 0.829315 2.1315 0.850935 2.13768C0.872212 2.14351 0.894175 2.13665 0.907902 2.11949C0.937072 2.08311 0.971389 2.0512 1.00948 2.02443C1.36947 1.77254 2.05994 1.98119 2.43297 2.12052C2.492 2.14248 2.55068 2.16548 2.60833 2.19053C2.62755 2.19911 2.64883 2.19602 2.66496 2.18264C2.68109 2.16925 2.68795 2.149 2.68315 2.12841C2.66873 2.06596 2.65466 2.0035 2.64231 1.9407C2.56063 1.5234 2.45185 0.685707 2.89385 0.437592C2.91342 0.42661 2.92371 0.406363 2.92131 0.3844C2.91891 0.362093 2.90449 0.344591 2.88322 0.338071C2.69344 0.280075 2.47758 0.266691 2.31011 0.390577C2.14299 0.514463 2.08636 0.728604 2.0795 0.926959C2.07161 1.16238 2.12857 1.41358 2.20785 1.64179V1.64213ZM4.41961 3.76948C4.32318 3.69123 4.19208 3.68471 4.09565 3.76673C3.99922 3.84841 3.98378 3.97881 4.04521 4.08691C4.0905 4.16721 4.15845 4.23482 4.23086 4.2911C4.35303 4.38616 4.52805 4.47607 4.67665 4.5248C4.69518 4.53098 4.71405 4.5272 4.72881 4.51451C4.74357 4.50181 4.75043 4.48396 4.74734 4.46475C4.72366 4.31032 4.66395 4.12295 4.59051 3.9867C4.54693 3.90606 4.49133 3.82781 4.41995 3.76982L4.41961 3.76948ZM5.11179 5.05844C4.90005 4.94245 4.66223 4.84464 4.42888 4.81341C4.23224 4.78733 4.01157 4.80758 3.86195 4.95206C3.71198 5.09687 3.68933 5.31204 3.71541 5.50868C3.7185 5.53065 3.73326 5.54781 3.75488 5.55398C3.77616 5.55982 3.79812 5.55295 3.81185 5.5358C3.84102 5.49942 3.87533 5.4675 3.91343 5.44074C4.27342 5.18885 4.96388 5.39784 5.33692 5.53682C5.39594 5.55879 5.45462 5.58178 5.51228 5.60683C5.5315 5.61541 5.55277 5.61232 5.5689 5.59894C5.58503 5.58556 5.59189 5.56531 5.58709 5.54472C5.57268 5.48226 5.55861 5.4198 5.54625 5.357C5.46458 4.9397 5.35545 4.10201 5.7978 3.8539C5.81736 3.84291 5.82766 3.82267 5.82525 3.8007C5.82285 3.7784 5.80844 3.7609 5.78716 3.75438C5.59739 3.69638 5.38153 3.68299 5.21406 3.80688C5.04693 3.93077 4.99031 4.14491 4.98345 4.34326C4.97555 4.57868 5.03252 4.82988 5.11179 5.0581V5.05844ZM5.51434 2.06424C5.53561 2.1593 5.56341 2.2523 5.59739 2.34393C5.68284 2.57282 5.80947 2.78937 5.97968 2.96542C6.23809 3.23206 6.55416 3.39507 6.9241 3.4366C7.44881 3.49562 7.99377 3.30173 8.44196 3.03954L9.77211 3.8539C9.77211 3.8539 9.77348 3.85493 9.77451 3.85527C9.96497 3.95891 10.1801 3.98121 10.3836 3.9016C10.6081 3.81374 10.7745 3.61951 10.8486 3.39267C10.9959 2.9438 10.7464 2.38305 10.2954 2.22244C10.013 2.12189 9.69798 2.19945 9.41898 2.2722C9.41829 2.2722 9.41761 2.27255 9.41692 2.27289C9.77314 1.94584 10.06 1.71626 10.6067 1.62601C10.8178 1.59135 11.0322 1.56286 11.2464 1.57899C11.3325 1.58551 11.4399 1.63115 11.512 1.67748C11.6517 1.76739 11.7292 1.89265 11.6342 2.05017C11.5803 2.13905 11.6445 2.26397 11.7502 2.24544C12.1383 2.17646 12.3971 1.87275 12.419 1.4805C12.4255 1.36142 12.4073 1.23993 12.3648 1.1284C12.3596 1.11536 12.3542 1.10232 12.3476 1.08997C12.3401 1.07487 12.3318 1.06045 12.3229 1.04604C12.2982 1.00589 12.2642 0.962992 12.2395 0.919409C12.4399 0.78763 12.5817 0.587559 12.7759 0.450289C12.9211 0.34768 12.9883 0.130794 12.7694 0.0673062C11.9345 -0.174289 11.198 0.285909 10.476 0.634917C10.4482 0.648301 10.4204 0.66546 10.3933 0.680903C10.3562 0.702179 10.3188 0.723799 10.281 0.743704C10.2515 0.75949 10.1338 0.819202 10.104 0.812682C10.0792 0.798612 10.0247 0.685707 10.011 0.65791C9.98384 0.603002 9.9461 0.520297 9.90389 0.477057C9.74877 0.318167 9.52056 0.208351 9.29784 0.202174C9.12522 0.197369 8.95192 0.264975 8.84313 0.402245C8.82254 0.428326 8.8071 0.455437 8.80504 0.489411C8.79921 0.57898 8.88019 0.626681 8.9502 0.659283C9.071 0.71522 9.16331 0.80273 9.21822 0.924557C9.35034 1.21831 9.22886 1.64625 9.01369 1.87206C8.88054 2.01173 8.73435 2.13974 8.57957 2.25436C8.25356 2.49561 7.86646 2.69465 7.47043 2.78937C7.13687 2.86898 6.76281 2.881 6.44915 2.72348C5.98689 2.49184 5.82971 1.98188 5.79574 1.49972C5.90899 1.13698 5.9234 0.767039 6.23535 0.503824H6.23569C6.23569 0.503824 6.23638 0.503481 6.23672 0.503138C6.23672 0.503138 6.23741 0.503138 6.23775 0.502795L6.24049 0.501765C6.24049 0.501765 6.24084 0.501765 6.24118 0.501765C6.34757 0.466075 6.47488 0.501079 6.54146 0.59305C6.55244 0.60815 6.56171 0.624622 6.5696 0.641437C6.60289 0.712475 6.61353 0.798955 6.62657 0.875826C6.63789 0.943088 6.65093 1.01069 6.67804 1.07384C6.78168 1.31852 7.08848 1.41598 7.31978 1.29484C7.38018 1.26327 7.43097 1.21797 7.46872 1.16135C7.59123 0.976376 7.57544 0.727918 7.49171 0.530935C7.44881 0.429699 7.38533 0.334639 7.30434 0.259827C7.25698 0.215901 7.20379 0.179181 7.14648 0.149668C6.85821 0.000387169 6.49376 0.0467157 6.2024 0.162022C5.96939 0.254336 5.71715 0.418717 5.56719 0.634231C5.5188 0.465389 5.42408 0.317137 5.29024 0.195997C5.21989 0.132166 5.11866 0.0597564 5.02977 0.0226935C5.00747 0.0134278 4.98276 0.0192618 4.96697 0.0381364C4.95153 0.0566678 4.94981 0.0820627 4.96286 0.102653C5.16224 0.414599 5.26622 0.772873 5.23602 1.1435C5.2271 1.25332 5.20651 1.36382 5.17356 1.46883C5.16121 1.50761 5.14611 1.55222 5.12792 1.58894C5.12758 1.58963 5.12724 1.59032 5.12689 1.59135C5.01776 1.84186 4.83519 2.01722 4.58227 2.1188C4.50231 2.15072 4.41927 2.17406 4.3345 2.19018C4.05825 2.24338 3.75797 2.22519 3.48206 2.17611C3.34822 2.15244 3.19962 2.11915 3.07059 2.07488C3.04622 2.0663 3.0198 2.07591 3.00642 2.09787C2.99303 2.11983 2.99646 2.14763 3.015 2.16548C3.07642 2.2245 3.15089 2.28181 3.21987 2.33157C3.38013 2.44654 3.55618 2.54537 3.74047 2.61538C4.2995 2.8278 4.82799 2.73858 5.27514 2.33226C5.36403 2.25161 5.44364 2.16204 5.51434 2.06527V2.06424ZM2.29604 4.8364C2.34169 4.80689 2.3863 4.77532 2.42885 4.74135C2.9014 4.36831 3.07814 3.8587 2.96112 3.27427C2.92234 3.08072 2.85405 2.89095 2.76722 2.71387C2.72982 2.63768 2.68555 2.55464 2.63716 2.48463C2.6224 2.46335 2.59598 2.45512 2.57196 2.46507C2.54793 2.47468 2.53421 2.49904 2.53867 2.52444C2.56132 2.65896 2.56921 2.81133 2.57058 2.94689C2.57333 3.22692 2.54176 3.52651 2.44395 3.79007C2.31663 4.13324 2.08808 4.3817 1.7226 4.47298C1.72157 4.47298 1.72088 4.47333 1.7202 4.47367C1.68107 4.48534 1.6344 4.49323 1.59425 4.49872C1.48512 4.51382 1.37256 4.51588 1.26309 4.50661C0.8904 4.47539 0.557864 4.31547 0.281265 4.06563C0.26342 4.04951 0.238025 4.04676 0.217091 4.05911C0.196158 4.07147 0.186206 4.0948 0.191696 4.11848C0.21366 4.21217 0.268568 4.32405 0.319701 4.40401C0.417849 4.55706 0.549628 4.6758 0.70989 4.75095C0.440841 4.89131 0.241114 5.20669 0.143995 5.47437C0.0177069 5.82303 -0.00768805 6.26985 0.261018 6.56086C0.33583 6.64185 0.430889 6.70533 0.532126 6.74823C0.729108 6.83197 0.97791 6.84775 1.16254 6.72524C1.21916 6.68749 1.26446 6.6367 1.29603 6.57664C1.41717 6.34534 1.32006 6.03855 1.07503 5.93456C1.01188 5.9078 0.944622 5.89441 0.877016 5.88309C0.783673 5.8673 0.672827 5.85495 0.59424 5.79798C0.501926 5.7314 0.467266 5.60409 0.502956 5.4977C0.511535 5.47196 0.523203 5.4476 0.53693 5.42426C0.641599 5.25165 0.879762 5.16482 1.06679 5.12227C1.25519 5.07937 1.50537 5.05638 1.69823 5.08075H1.69892C2.10627 5.16963 2.47587 5.37656 2.678 5.75337C2.87361 6.11851 2.86057 6.55022 2.7432 6.93766C2.58877 7.44728 2.25521 7.9061 1.87291 8.27021C1.75348 8.38415 1.58464 8.46445 1.42507 8.50254C1.12239 8.57495 0.801175 8.51215 0.66013 8.20672C0.627872 8.13672 0.579827 8.05573 0.490259 8.06156C0.456284 8.06362 0.429173 8.07906 0.403092 8.09965C0.265822 8.20844 0.19856 8.38174 0.203021 8.55436C0.209198 8.77708 0.319014 9.00564 0.477904 9.16041C0.521487 9.20262 0.603849 9.24037 0.658757 9.26748C0.686554 9.2812 0.799459 9.33577 0.8125 9.35842C0.820049 9.39033 0.759994 9.50804 0.744551 9.53756C0.724304 9.57565 0.703027 9.61271 0.68175 9.64977C0.666307 9.67654 0.649148 9.70434 0.635765 9.73248C0.286413 10.4545 -0.173785 11.1906 0.0681536 12.0256C0.131641 12.2445 0.348527 12.1773 0.451137 12.0321C0.58875 11.8379 0.788477 11.6961 0.920256 11.4957C0.96384 11.5204 1.00674 11.5547 1.04723 11.5794C1.07331 11.5956 1.10042 11.61 1.12925 11.621C1.24078 11.6635 1.36227 11.6817 1.48135 11.6752C1.87325 11.6532 2.17731 11.3948 2.24628 11.0063C2.26516 10.9006 2.14024 10.8365 2.05136 10.89C1.98856 10.9281 1.91992 10.9459 1.84889 10.9202C1.70613 10.8684 1.59151 10.645 1.58052 10.5022C1.5644 10.2881 1.59288 10.0733 1.62754 9.86254C1.71539 9.33028 1.95012 9.02897 2.27408 8.67344C2.27408 8.67378 2.27408 8.67413 2.27408 8.67481C2.20133 8.95382 2.12377 9.26919 2.22432 9.55128C2.38493 10.0026 2.94567 10.2517 3.39455 10.1045C3.64953 10.0207 3.86607 9.81862 3.93539 9.55506C3.98035 9.38484 3.95598 9.20982 3.87259 9.0554C3.83861 8.99259 3.79332 8.93597 3.74047 8.88793C3.61555 8.77468 3.44499 8.70673 3.27615 8.70501C3.12241 8.7033 2.92097 8.7637 2.84478 8.90817C2.79982 8.99328 2.78987 9.11511 2.83277 9.20296C2.86263 9.26473 2.9141 9.31518 2.9745 9.34709C3.02941 9.37592 3.08054 9.38175 3.14128 9.3797C3.18143 9.37832 3.22227 9.37386 3.26208 9.3821C3.30669 9.39171 3.40553 9.41813 3.41033 9.47681C3.41548 9.53618 3.34101 9.61237 3.29297 9.63811C3.22605 9.67414 3.14403 9.68135 3.06922 9.6786C2.88493 9.67105 2.70099 9.61889 2.59632 9.45588C2.48273 9.2788 2.49577 9.02485 2.53146 8.8265C2.56372 8.64702 2.62172 8.46513 2.69241 8.29698C2.72776 8.2129 2.76722 8.13088 2.8084 8.04955C3.41171 7.2273 3.81082 6.05296 2.96729 5.23552C2.77718 5.05158 2.54485 4.92151 2.29604 4.83572V4.8364ZM3.69379 50.6509C3.90553 50.5349 4.14335 50.4371 4.37671 50.4059C4.57335 50.3798 4.79401 50.4001 4.94364 50.5445C5.0936 50.6894 5.11625 50.9045 5.09017 51.1012C5.08708 51.1231 5.07233 51.1406 5.05071 51.1465C5.02909 51.1523 5.00747 51.1454 4.99374 51.1283C4.96457 51.0919 4.93025 51.06 4.89216 51.0332C4.53217 50.7813 3.8417 50.9903 3.46867 51.1293C3.40965 51.1513 3.35096 51.1743 3.29331 51.1993C3.27409 51.2079 3.25282 51.2048 3.23669 51.1914C3.22056 51.178 3.21369 51.1578 3.2185 51.1372C3.23291 51.0747 3.24698 51.0123 3.25934 50.9495C3.34101 50.5322 3.45014 49.6945 3.00779 49.4464C2.98823 49.4354 2.97793 49.4151 2.98033 49.3932C2.98274 49.3709 2.99715 49.3534 3.01843 49.3469C3.2082 49.2889 3.42406 49.2755 3.59153 49.3994C3.75865 49.5232 3.81528 49.7374 3.82214 49.9357C3.83004 50.1712 3.77307 50.4224 3.69379 50.6506V50.6509ZM10.0727 50.7285C10.0521 50.8249 10.0937 50.9045 10.0425 51.0023C10.0154 51.0545 9.97286 51.0964 9.9231 51.1204C9.84898 51.1561 9.745 51.1447 9.67773 51.1091C9.54527 51.0394 9.49242 50.8328 9.5058 50.6832L8.76489 51.2398C8.84897 51.2827 8.93373 51.3232 9.01987 51.3596C9.47251 51.55 10.4416 51.8115 10.477 50.9347C10.4804 50.8469 10.4701 50.7573 10.4303 50.6828C10.3706 50.5723 10.1445 50.3973 10.0734 50.7285H10.0727ZM7.70688 45.3307C7.56618 45.3544 7.43062 45.4161 7.33351 45.5229C7.21683 45.6515 7.1451 45.8166 7.09946 45.9824C6.99685 46.3557 7.09534 46.713 7.27276 47.0483C7.37915 47.084 7.48896 47.1104 7.6005 47.1238C7.84895 47.1529 8.11492 47.1121 8.32322 46.9669C8.71478 46.6934 8.96599 46.0606 8.67223 45.6361C8.61115 45.5476 8.53805 45.4645 8.44402 45.412C8.39838 45.3866 8.34965 45.3691 8.2992 45.3564C8.13345 45.3152 7.87126 45.3029 7.70654 45.3303L7.70688 45.3307ZM8.08334 50.096C8.06344 50.1063 8.04353 50.1187 8.02603 50.1276C8.00201 50.1403 7.97765 50.1509 7.95122 50.1574C7.87058 50.1773 7.78581 50.1773 7.70482 50.1588C7.42445 50.0943 7.25114 49.8524 7.23193 49.5727C7.22541 49.4807 7.33351 49.4361 7.40111 49.4965C7.43234 49.5246 7.47112 49.5469 7.51436 49.5373C7.60805 49.5164 7.69041 49.3609 7.70414 49.2734C7.72884 49.1176 7.7237 48.9574 7.71477 48.8005C7.69693 48.492 7.58334 48.214 7.43303 47.9481C7.42582 47.9381 7.41861 47.9282 7.41141 47.9179C7.43714 48.1118 7.45465 48.3263 7.37709 48.5061C7.24016 48.8235 6.84242 48.9594 6.53974 48.793C6.24839 48.633 6.10528 48.2494 6.28648 47.956C6.26795 47.9755 6.2477 47.9934 6.22574 48.0092C5.94502 48.212 5.55106 48.095 5.37158 47.8142C5.18558 47.5239 5.29471 47.1172 5.6015 46.9594C5.77584 46.8698 5.99101 46.8729 6.18627 46.8856C6.17563 46.8791 6.16534 46.8726 6.1547 46.866C5.87913 46.7339 5.5943 46.6392 5.28544 46.6423C5.12827 46.6437 4.968 46.6495 4.81426 46.6845C4.7621 46.6965 4.70136 46.7298 4.6588 46.7621C4.57061 46.8293 4.51982 46.912 4.61179 47.0019C4.67665 47.0654 4.63958 47.1763 4.54727 47.1759C4.2669 47.1756 4.01398 47.0191 3.93093 46.7435C3.90691 46.6643 3.90107 46.5795 3.91549 46.4978C3.91652 46.4923 3.91754 46.4868 3.91892 46.4813C3.92407 46.4604 3.93161 46.4405 3.94019 46.4209C3.94809 46.4031 3.95907 46.3825 3.96799 46.3619C3.80944 46.2981 3.67698 46.1886 3.52015 46.1238C3.50299 46.1166 3.48617 46.1076 3.47039 46.0973C3.36263 46.0266 3.32831 45.9 3.46764 45.8382C4.0428 45.5836 4.65983 45.8019 5.23225 45.945C5.28784 45.9587 5.47178 46.026 5.52292 46.0184C5.54968 45.9831 5.57233 45.8375 5.6118 45.783C5.70686 45.6529 5.86232 45.5572 6.02052 45.5283C6.14749 45.505 6.28614 45.529 6.39012 45.6087C6.4114 45.6248 6.4289 45.6433 6.43713 45.6694C6.4591 45.7394 6.40179 45.7874 6.34962 45.8207C6.03939 46.0167 6.25216 46.4312 6.49136 46.5843C6.6022 46.655 6.71442 46.7243 6.82938 46.7881C6.79369 46.666 6.76658 46.5417 6.75011 46.4151C6.69554 45.9968 6.80227 45.5222 7.13824 45.2425C7.26659 45.1358 7.42067 45.0644 7.58231 45.0256C7.66055 45.0067 7.74086 44.9954 7.8215 44.9916C7.97387 44.9841 8.12761 45.0077 8.27243 45.0561C8.65645 45.1852 8.9907 45.4995 9.05007 45.9127C9.05865 45.9731 9.06379 46.0352 9.0686 46.0963C9.07306 46.157 9.07683 46.2188 9.07821 46.2799C9.07958 46.3605 9.07409 46.4415 9.06036 46.5208C9.03256 46.6848 8.97148 46.8434 8.87367 46.9783C8.61732 47.3324 8.15095 47.4707 7.72987 47.4443C7.67771 47.4409 7.62589 47.4357 7.57407 47.4288C7.61251 47.4838 7.65197 47.5383 7.69212 47.5925C7.86062 47.8208 8.28822 48.0068 8.46358 47.6828C8.49309 47.6282 8.53736 47.5678 8.60874 47.585C8.63551 47.5915 8.65507 47.6076 8.67257 47.6279C8.75905 47.726 8.792 47.863 8.77724 47.9913C8.75905 48.1512 8.67395 48.3129 8.5504 48.4162C8.49893 48.4594 8.35514 48.4917 8.32151 48.5208C8.31739 48.5723 8.39666 48.7514 8.41416 48.8057C8.59536 49.3678 8.85514 49.9666 8.63894 50.5589C8.62144 50.6073 8.58815 50.6509 8.53359 50.6578C8.45432 50.6677 8.38293 50.5912 8.35068 50.526C8.27552 50.374 8.15747 50.2491 8.083 50.0953L8.08334 50.096ZM6.34139 47.886C6.35683 47.8698 6.37365 47.8547 6.39115 47.8407C6.48518 47.7679 6.60872 47.7346 6.72643 47.7528C6.84105 47.7707 6.97008 47.8441 7.01058 47.9584C7.03494 48.027 7.0346 48.1207 6.99822 48.1852C6.97283 48.2298 6.93302 48.2648 6.88498 48.2837C6.84654 48.2988 6.81017 48.2998 6.77001 48.2926C6.74359 48.2878 6.7127 48.2779 6.68594 48.2796C6.66397 48.2813 6.60941 48.2875 6.60117 48.3142C6.58985 48.3516 6.63583 48.4179 6.66294 48.4402C6.70104 48.4711 6.75045 48.4848 6.79815 48.4903C6.89905 48.5026 7.00543 48.492 7.08024 48.4158C7.26213 48.2305 7.17599 47.76 7.1149 47.5349C7.09706 47.4693 7.07647 47.4041 7.05416 47.34C7.0473 47.3266 7.04043 47.3132 7.03391 47.2998C6.95052 47.271 6.86816 47.2391 6.78717 47.2037C6.72128 47.1859 6.65539 47.1698 6.58847 47.1564C6.45875 47.1303 6.32251 47.1138 6.19005 47.1124C6.04008 47.1111 5.81873 47.1299 5.71166 47.2501C5.64097 47.3293 5.63754 47.4367 5.65641 47.5363C5.66533 47.5836 5.68249 47.632 5.71578 47.668C5.73191 47.6855 5.75765 47.7017 5.77927 47.7113C5.85442 47.7442 5.87398 47.7127 5.87433 47.6344C5.87433 47.6076 5.86232 47.5774 5.8558 47.5514C5.84584 47.5119 5.84413 47.4755 5.85683 47.4361C5.87261 47.387 5.90487 47.3448 5.94777 47.3166C6.00954 47.2761 6.10288 47.2693 6.17323 47.2892C6.28991 47.3221 6.37193 47.4457 6.39733 47.5589C6.42203 47.6698 6.40076 47.7892 6.34105 47.8856L6.34139 47.886ZM1.30255 53.0473C1.39899 52.9691 1.53008 52.9625 1.62651 53.0442C1.72294 53.1259 1.73839 53.2563 1.67696 53.3644C1.63166 53.4447 1.56371 53.5123 1.4913 53.5686C1.36913 53.6636 1.19411 53.7536 1.04552 53.8023C1.02698 53.8085 1.00811 53.8047 0.993353 53.792C0.978596 53.7793 0.971733 53.7615 0.974821 53.7422C0.9985 53.5878 1.05821 53.4001 1.132 53.2642C1.17558 53.1835 1.23117 53.1053 1.30255 53.0473ZM2.20716 52.3579C1.99542 52.4739 1.7576 52.5717 1.52424 52.6029C1.3276 52.629 1.10694 52.6087 0.957319 52.4643C0.807352 52.3194 0.784702 52.1043 0.810784 51.9076C0.813872 51.8857 0.828629 51.8682 0.850249 51.8623C0.871526 51.8565 0.893489 51.8634 0.907216 51.8805C0.936386 51.9169 0.970703 51.9488 1.0088 51.9756C1.36879 52.2275 2.05925 52.0188 2.43228 51.8795C2.49131 51.8575 2.54999 51.8345 2.60765 51.8095C2.62686 51.8009 2.64814 51.804 2.66427 51.8174C2.6804 51.8308 2.68726 51.851 2.68246 51.8716C2.66805 51.934 2.65398 51.9965 2.64162 52.0593C2.55995 52.4766 2.45116 53.3143 2.89317 53.5624C2.91273 53.5734 2.92302 53.5936 2.92062 53.6156C2.91822 53.6379 2.90381 53.6554 2.88253 53.6619C2.69275 53.7199 2.4769 53.7333 2.30943 53.6094C2.1423 53.4855 2.08568 53.2714 2.07881 53.073C2.07092 52.8376 2.12789 52.5864 2.20716 52.3582V52.3579ZM4.41892 50.2305C4.32249 50.3088 4.1914 50.3153 4.09497 50.2333C3.99853 50.1516 3.98309 50.0212 4.04452 49.9131C4.08982 49.8328 4.15777 49.7652 4.23018 49.7089C4.35235 49.6138 4.52737 49.5239 4.67596 49.4752C4.69449 49.469 4.71337 49.4728 4.72812 49.4855C4.74288 49.4982 4.74974 49.516 4.74666 49.5353C4.72298 49.6897 4.66326 49.8771 4.58982 50.0133C4.54624 50.0939 4.49065 50.1722 4.41927 50.2302L4.41892 50.2305ZM5.11111 48.9416C4.89937 49.0576 4.66155 49.1554 4.42819 49.1866C4.23155 49.2127 4.01089 49.1924 3.86126 49.0479C3.7113 48.9031 3.68865 48.688 3.71473 48.4913C3.71782 48.4694 3.73257 48.4522 3.75419 48.446C3.77547 48.4402 3.79743 48.447 3.81116 48.4642C3.84033 48.5006 3.87465 48.5325 3.91274 48.5593C4.27273 48.8112 4.9632 48.6022 5.33623 48.4632C5.39526 48.4412 5.45394 48.4182 5.51159 48.3932C5.53081 48.3846 5.55209 48.3877 5.56822 48.4011C5.58434 48.4144 5.59121 48.4347 5.5864 48.4553C5.57199 48.5177 5.55792 48.5802 5.54557 48.643C5.46389 49.0603 5.35476 49.898 5.79711 50.1461C5.81667 50.1571 5.82697 50.1773 5.82457 50.1993C5.82216 50.2216 5.80775 50.2391 5.78647 50.2456C5.5967 50.3036 5.38084 50.317 5.21337 50.1931C5.04625 50.0692 4.98962 49.8551 4.98276 49.6564C4.97487 49.421 5.03183 49.1698 5.11111 48.9416ZM5.51365 51.9358C5.53493 51.8407 5.56272 51.7477 5.5967 51.6561C5.68215 51.4272 5.80878 51.2106 5.979 51.0346C6.23741 50.7679 6.55347 50.6049 6.92341 50.5634C7.44813 50.5044 7.99309 50.6983 8.44127 50.9605L9.77142 50.1461C9.77142 50.1461 9.77279 50.1451 9.77382 50.1447C9.96428 50.0411 10.1795 50.0188 10.383 50.0984C10.607 50.1863 10.7738 50.3805 10.848 50.6073C10.9952 51.0562 10.7457 51.617 10.2948 51.7776C10.0123 51.8781 9.69729 51.8006 9.41829 51.7278C9.41761 51.7278 9.41692 51.7275 9.41623 51.7271C9.77245 52.0542 10.0593 52.2837 10.606 52.374C10.8171 52.4087 11.0316 52.4371 11.2457 52.421C11.3318 52.4145 11.4392 52.3689 11.5113 52.3225C11.651 52.2326 11.7285 52.1073 11.6335 51.9498C11.58 51.8609 11.6438 51.736 11.7495 51.7546C12.1376 51.8235 12.3964 52.1273 12.4183 52.5195C12.4248 52.6386 12.4067 52.7601 12.3641 52.8716C12.359 52.8846 12.3535 52.8977 12.3469 52.91C12.3394 52.9251 12.3312 52.9395 12.3222 52.954C12.2975 52.9941 12.2636 53.037 12.2388 53.0806C12.4393 53.2124 12.581 53.4124 12.7752 53.5497C12.9204 53.6523 12.9877 53.8692 12.7687 53.9327C11.9338 54.1743 11.1973 53.7141 10.4756 53.3651C10.4478 53.3517 10.42 53.3345 10.3929 53.3191C10.3558 53.2978 10.3184 53.2762 10.2807 53.2563C10.2512 53.2405 10.1331 53.1808 10.1036 53.1873C10.0789 53.2014 10.0243 53.3143 10.0106 53.3421C9.9835 53.397 9.94575 53.4797 9.90354 53.5229C9.74843 53.6818 9.52022 53.7917 9.2975 53.7978C9.12488 53.8026 8.95158 53.735 8.84279 53.5978C8.8222 53.5717 8.80676 53.5446 8.8047 53.5106C8.79886 53.421 8.87985 53.3733 8.94986 53.3407C9.07066 53.2848 9.16297 53.1973 9.21788 53.0754C9.35 52.7817 9.22852 52.3538 9.01335 52.1279C8.88019 51.9883 8.734 51.8603 8.57923 51.7456C8.25321 51.5044 7.86611 51.3054 7.47009 51.2106C7.13652 51.131 6.76246 51.119 6.4488 51.2765C5.98655 51.5082 5.82937 52.0181 5.7954 52.5003C5.90864 52.863 5.92306 53.233 6.235 53.4962H6.23535C6.23535 53.4962 6.23603 53.4965 6.23638 53.4969C6.23638 53.4969 6.23706 53.4969 6.23741 53.4972L6.24015 53.4982C6.24015 53.4982 6.2405 53.4982 6.24084 53.4982C6.34722 53.5339 6.47454 53.4989 6.54112 53.407C6.5521 53.3919 6.56136 53.3754 6.56926 53.3586C6.60254 53.2875 6.61318 53.201 6.62622 53.1242C6.63755 53.0569 6.65059 52.9893 6.6777 52.9262C6.78134 52.6815 7.08814 52.584 7.31944 52.7052C7.37984 52.7367 7.43062 52.782 7.46837 52.8387C7.59089 53.0236 7.5751 53.2721 7.49137 53.4691C7.44847 53.5703 7.38498 53.6654 7.30399 53.7402C7.25664 53.7841 7.20344 53.8208 7.14613 53.8503C6.85787 53.9996 6.49341 53.9533 6.20206 53.838C5.96904 53.7457 5.71681 53.5813 5.56684 53.3658C5.51845 53.5346 5.42374 53.6829 5.2899 53.804C5.21955 53.8678 5.11831 53.9402 5.02943 53.9773C5.00712 53.9866 4.98242 53.9807 4.96663 53.9622C4.95119 53.9437 4.94947 53.9183 4.96251 53.8977C5.1619 53.5857 5.26588 53.2275 5.23568 52.8568C5.22676 52.747 5.20617 52.6365 5.17322 52.5315C5.16087 52.4927 5.14577 52.4481 5.12792 52.4114C5.12758 52.4107 5.12724 52.41 5.12689 52.409C5.01776 52.1585 4.83519 51.9831 4.58227 51.8815C4.50231 51.8496 4.41927 51.8263 4.3345 51.8102C4.05825 51.757 3.75763 51.7752 3.48206 51.8242C3.34822 51.8479 3.19962 51.8812 3.07059 51.9255C3.04622 51.934 3.0198 51.9244 3.00642 51.9025C2.99303 51.8805 2.99646 51.8527 3.015 51.8349C3.07642 51.7758 3.15089 51.7185 3.21987 51.6688C3.38013 51.5538 3.55618 51.455 3.74047 51.385C4.2995 51.1725 4.82799 51.2618 5.27514 51.6681C5.36403 51.7487 5.44364 51.8383 5.51434 51.9351L5.51365 51.9358ZM2.29536 49.1636C2.341 49.1931 2.38561 49.2247 2.42817 49.2587C2.90072 49.6317 3.07745 50.1413 2.96043 50.7257C2.92165 50.9193 2.85336 51.1091 2.76654 51.2861C2.72913 51.3623 2.68486 51.4454 2.63647 51.5154C2.62172 51.5367 2.59529 51.5449 2.57127 51.5349C2.54725 51.5253 2.53352 51.501 2.53798 51.4756C2.56063 51.341 2.56852 51.1887 2.5699 51.0531C2.57264 50.7731 2.54107 50.4735 2.44327 50.2099C2.31595 49.8668 2.08739 49.6183 1.72191 49.527C1.72088 49.527 1.7202 49.5267 1.71951 49.5263C1.68039 49.5147 1.63372 49.5068 1.59357 49.5013C1.48444 49.4862 1.37187 49.4841 1.2624 49.4934C0.889714 49.5246 0.557178 49.6845 0.280579 49.9344C0.262734 49.9505 0.237339 49.9532 0.216405 49.9409C0.195471 49.9285 0.185519 49.9052 0.19101 49.8815C0.212973 49.7878 0.267881 49.676 0.319014 49.596C0.417162 49.4429 0.548941 49.3242 0.709204 49.249C0.440155 49.1087 0.240427 48.7933 0.143309 48.5256C0.0170205 48.177 -0.0083744 47.7302 0.260331 47.4391C0.335144 47.3582 0.430203 47.2947 0.531439 47.2518C0.728422 47.168 0.977223 47.1522 1.16185 47.2748C1.21848 47.3125 1.26377 47.3633 1.29535 47.4234C1.41649 47.6547 1.31937 47.9615 1.07434 48.0654C1.0112 48.0922 0.943936 48.1056 0.87633 48.1169C0.782987 48.1327 0.672141 48.1451 0.593554 48.202C0.50124 48.2686 0.466579 48.3959 0.50227 48.5023C0.510849 48.528 0.522517 48.5524 0.536244 48.5757C0.640912 48.7484 0.879076 48.8352 1.06611 48.8777C1.25451 48.9206 1.50468 48.9436 1.69755 48.9193H1.69823C2.10558 48.8304 2.47518 48.6234 2.67731 48.2466C2.87292 47.8815 2.85988 47.4498 2.74251 47.0623C2.58809 46.5527 2.25452 46.0939 1.87222 45.7298C1.7528 45.6159 1.58396 45.5356 1.42438 45.4975C1.1217 45.4251 0.800488 45.4879 0.659444 45.7933C0.627185 45.8633 0.579141 45.9443 0.489572 45.9384C0.455598 45.9364 0.428487 45.9206 0.402406 45.9004C0.265136 45.7916 0.197874 45.6183 0.202335 45.4456C0.208512 45.2229 0.318328 44.9944 0.477218 44.8396C0.520801 44.7974 0.603163 44.7596 0.658071 44.7325C0.685868 44.7188 0.798773 44.6642 0.811813 44.6416C0.819363 44.6097 0.759307 44.492 0.743865 44.4624C0.723617 44.4244 0.70234 44.3873 0.681064 44.3502C0.665621 44.3235 0.648462 44.2957 0.635078 44.2675C0.285726 43.5455 -0.174471 42.8094 0.0674672 41.9744C0.130955 41.7555 0.347841 41.8227 0.45045 41.9679C0.588063 42.1621 0.787791 42.3039 0.91957 42.5043C0.963153 42.4796 1.00605 42.4453 1.04654 42.4206C1.07263 42.4044 1.09974 42.39 1.12856 42.379C1.2401 42.3365 1.36158 42.3183 1.48066 42.3248C1.87257 42.3468 2.17662 42.6052 2.2456 42.9937C2.26447 43.0994 2.13956 43.1635 2.05067 43.11C1.98787 43.0719 1.91924 43.0541 1.8482 43.0798C1.70544 43.1316 1.59082 43.355 1.57984 43.4978C1.56371 43.7119 1.59219 43.9268 1.62685 44.1375C1.71471 44.6697 1.94944 44.971 2.27339 45.3266C2.27339 45.3262 2.27339 45.3259 2.27339 45.3252C2.20064 45.0462 2.12308 44.7308 2.22363 44.4487C2.38424 43.9974 2.94499 43.7483 3.39386 43.8955C3.64884 43.9793 3.86538 44.1814 3.9347 44.4449C3.97966 44.6152 3.95529 44.7902 3.8719 44.9446C3.83793 45.0074 3.79263 45.064 3.73978 45.1121C3.61486 45.2253 3.44431 45.2933 3.27546 45.295C3.12172 45.2967 2.92028 45.2363 2.84409 45.0918C2.79914 45.0067 2.78919 44.8849 2.83208 44.797C2.86194 44.7353 2.91342 44.6848 2.97381 44.6529C3.02872 44.6241 3.07986 44.6182 3.1406 44.6203C3.18075 44.6217 3.22159 44.6261 3.26139 44.6179C3.30601 44.6083 3.40484 44.5819 3.40965 44.5232C3.41479 44.4638 3.34032 44.3876 3.29228 44.3619C3.22536 44.3259 3.14334 44.3187 3.06853 44.3214C2.88425 44.329 2.7003 44.3811 2.59564 44.5441C2.48204 44.7212 2.49509 44.9751 2.53078 45.1735C2.56303 45.353 2.62103 45.5349 2.69172 45.703C2.72707 45.7871 2.76654 45.8691 2.80772 45.9505C3.41102 46.7727 3.81013 47.947 2.96661 48.7645C2.77649 48.9484 2.54416 49.0785 2.29536 49.1643V49.1636ZM139.785 40.4487V13.5513C139.785 13.4576 139.862 13.3811 139.955 13.3811C140.049 13.3811 140.126 13.4576 140.126 13.5513V40.4487C140.126 40.5424 140.049 40.6189 139.955 40.6189C139.862 40.6189 139.785 40.5424 139.785 40.4487ZM3.16462 40.4487V13.5513C3.16462 13.4576 3.24115 13.3811 3.33483 13.3811C3.42852 13.3811 3.50505 13.4576 3.50505 13.5513V40.4487C3.50505 40.5424 3.42852 40.6189 3.33483 40.6189C3.24115 40.6189 3.16462 40.5424 3.16462 40.4487ZM20.6466 50.677H122.448C122.542 50.677 122.619 50.6005 122.619 50.5068C122.619 50.4131 122.542 50.3366 122.448 50.3366H20.647C20.5533 50.3366 20.4768 50.4131 20.4768 50.5068C20.4768 50.6005 20.5533 50.677 20.647 50.677H20.6466ZM20.6466 3.323H122.448C122.542 3.323 122.619 3.39953 122.619 3.49322C122.619 3.58691 122.542 3.66343 122.448 3.66343H20.647C20.5533 3.66343 20.4768 3.58691 20.4768 3.49322C20.4768 3.39953 20.5533 3.323 20.647 3.323H20.6466ZM141.731 41.9181V12.9055C141.731 12.8118 141.808 12.7353 141.901 12.7353C141.995 12.7353 142.071 12.8118 142.071 12.9055V41.9181C142.071 42.0118 141.995 42.0884 141.901 42.0884C141.808 42.0884 141.731 42.0118 141.731 41.9181ZM1.21916 41.5063V12.4937C1.21916 12.4 1.29569 12.3234 1.38938 12.3234C1.48306 12.3234 1.55959 12.4 1.55959 12.4937V41.5063C1.55959 41.6 1.48306 41.6766 1.38938 41.6766C1.29569 41.6766 1.21916 41.6 1.21916 41.5063ZM12.9465 52.282H130.149C130.242 52.282 130.319 52.3586 130.319 52.4522C130.319 52.5459 130.242 52.6225 130.149 52.6225H12.9472C12.8535 52.6225 12.7769 52.5459 12.7769 52.4522C12.7769 52.3586 12.8535 52.282 12.9472 52.282H12.9465ZM12.9465 1.37755H130.149C130.242 1.37755 130.319 1.45408 130.319 1.54776C130.319 1.64145 130.242 1.71798 130.149 1.71798H12.9472C12.8535 1.71798 12.7769 1.64145 12.7769 1.54776C12.7769 1.45408 12.8535 1.37755 12.9472 1.37755H12.9465ZM23.7599 27.8638V31.1431C23.7599 31.604 23.775 31.94 23.808 32.1507C23.8409 32.358 23.8889 32.5162 23.9545 32.6215C24.0173 32.7303 24.1041 32.8158 24.215 32.8851C24.3258 32.951 24.5173 33.0268 24.7867 33.1089V33.5831H21.0838V33.1089C21.449 33.0069 21.6916 32.8947 21.8141 32.7664C21.937 32.6411 22.0176 32.4633 22.0536 32.2331C22.0924 32.0025 22.1106 31.6469 22.1106 31.173V22.8263C22.1106 22.385 22.0955 22.059 22.0687 21.8582C22.0389 21.654 21.9908 21.4993 21.9222 21.3839C21.8563 21.2721 21.7664 21.1832 21.6559 21.1139C21.5451 21.048 21.3536 20.9721 21.0842 20.8901V20.4158H25.4274C26.7953 20.4158 27.819 20.689 28.4954 21.2357C29.1749 21.7824 29.5132 22.6317 29.5132 23.781C29.5132 24.6633 29.2919 25.4142 28.8516 26.0298C28.4086 26.6489 27.7469 27.1297 26.8639 27.4787V27.5546C27.2201 27.7159 27.5256 27.9465 27.7799 28.2426C28.0342 28.5422 28.3186 29.0065 28.6268 29.6387L29.4171 31.219C29.6447 31.6833 29.8392 32.0354 30.004 32.2825C30.1687 32.5261 30.3331 32.7104 30.504 32.8391C30.6745 32.9675 30.899 33.0598 31.1804 33.1092V33.5835H28.7497C28.5283 33.241 28.3156 32.8755 28.1182 32.4836C27.9206 32.0917 27.7232 31.6933 27.5314 31.2883L26.7593 29.675C26.5259 29.1877 26.3341 28.8288 26.1844 28.5951C26.0348 28.3645 25.8972 28.2032 25.7713 28.1078C25.6457 28.0155 25.5139 27.953 25.3701 27.9166C25.2263 27.8802 25.0108 27.8641 24.7235 27.8641H23.7596L23.7599 27.8638ZM23.7599 21.3047V27.034H24.7507C25.2596 27.034 25.6724 26.9945 25.9868 26.9121C26.3042 26.8332 26.5945 26.6784 26.8639 26.4544C27.1333 26.2306 27.3488 25.9142 27.5105 25.5127C27.669 25.1108 27.75 24.617 27.75 24.0343C27.75 23.4217 27.6543 22.9148 27.4655 22.5099C27.274 22.105 26.9864 21.7954 26.6004 21.5813C26.2143 21.3706 25.6964 21.2652 25.041 21.2652C24.5142 21.2652 24.0863 21.2782 23.7599 21.3047ZM38.8802 33.5828V33.1085C39.1736 33.0461 39.3891 32.9736 39.5326 32.8978C39.6764 32.822 39.7841 32.7135 39.8527 32.5752C39.9245 32.4369 39.9574 32.2526 39.9574 32.0189C39.9574 31.8017 39.9365 31.5646 39.8884 31.311C39.8404 31.0574 39.7748 30.7711 39.688 30.4582L39.3617 29.2135H35.2758L34.9766 30.1586C34.8269 30.6328 34.725 30.9949 34.6804 31.2386C34.6324 31.4822 34.6087 31.706 34.6087 31.9036C34.6087 32.289 34.6986 32.5721 34.8781 32.753C35.0548 32.9342 35.33 33.0526 35.6983 33.1085V33.5828H31.9535V33.1085C32.2799 33.0526 32.5641 32.8419 32.8067 32.4829C33.0493 32.1239 33.2858 31.6071 33.5129 30.9386L37.1708 20.2607H38.5566L41.5381 31.0179C41.6788 31.5182 41.8016 31.9002 41.9094 32.1638C42.0171 32.4273 42.1489 32.6346 42.3016 32.7828C42.4513 32.9311 42.6609 33.0395 42.9242 33.1089V33.5831H38.8802V33.5828ZM35.5126 28.3737H39.1794L37.5123 22.1506L35.5126 28.3737ZM51.9109 28.3638C52.1206 28.7492 52.2969 29.0882 52.4407 29.3779C52.5845 29.6675 52.7311 29.9904 52.8838 30.3525H52.9974C52.9706 29.9575 52.9435 29.1802 52.9195 28.0113C52.8954 26.8456 52.8834 25.792 52.8834 24.8538V22.8256C52.8834 22.3843 52.8714 22.0583 52.8505 21.851C52.8265 21.6468 52.7846 21.489 52.7218 21.3802C52.6621 21.2714 52.5753 21.1825 52.4675 21.1135C52.3597 21.0476 52.171 20.9718 51.9016 20.8898V20.4155H55.0595V20.8898C54.7959 20.9656 54.6106 21.0346 54.5029 21.1005C54.3951 21.1664 54.3052 21.2487 54.2393 21.3507C54.1703 21.4526 54.1196 21.6074 54.0866 21.815C54.0506 22.0192 54.0327 22.3582 54.0327 22.826V33.6421H52.9373L48.0522 24.63C47.7468 24.0703 47.5313 23.6619 47.4026 23.4052C47.2739 23.1485 47.1541 22.8949 47.0433 22.6448H46.8937C46.9355 23.1386 46.9654 24.0343 46.9836 25.3315C46.9987 26.6256 47.0076 27.9163 47.0076 29.2035V31.1727C47.0076 31.6006 47.0227 31.9167 47.0495 32.1178C47.0735 32.3154 47.1184 32.4733 47.1812 32.5886C47.241 32.7039 47.3309 32.8027 47.4506 32.8782C47.5704 32.9572 47.765 33.033 48.0344 33.1089V33.5831H44.8346V33.1089C45.1967 33.0069 45.4393 32.8947 45.5621 32.7664C45.685 32.6411 45.7656 32.4633 45.8048 32.2331C45.8408 32.0025 45.8617 31.6469 45.8617 31.173V22.8263C45.8617 22.385 45.8466 22.059 45.8168 21.8582C45.7869 21.654 45.7389 21.4993 45.673 21.3839C45.604 21.2721 45.5144 21.1832 45.4036 21.1139C45.2928 21.048 45.1043 20.9721 44.835 20.8901V20.4158H47.5797L51.9109 28.3641V28.3638ZM60.4697 26.3686H60.7332C60.9546 26.3686 61.1584 26.3291 61.3437 26.2502C61.5263 26.1743 61.7329 26.0295 61.9604 25.8188C62.1879 25.6047 62.538 25.2097 63.005 24.63C63.5648 23.942 63.9481 23.4447 64.1543 23.1352C64.4117 22.7697 64.5823 22.4601 64.6722 22.21C64.7412 22.0223 64.7768 21.8445 64.7768 21.6698C64.7768 21.4131 64.7079 21.2254 64.5733 21.1036C64.4388 20.9852 64.2559 20.9128 64.0225 20.8894V20.4152H67.8452V20.8894C67.6595 20.9323 67.4739 21.0113 67.2913 21.1231C67.1118 21.235 66.9261 21.3898 66.7347 21.5874C66.5459 21.7851 66.2676 22.1077 65.8994 22.5555L62.9508 26.2038L66.1447 31.3075C66.4831 31.8477 66.7494 32.2228 66.9409 32.4403C67.1355 32.6545 67.3181 32.8123 67.4948 32.9112C67.6684 33.0131 67.8568 33.079 68.0545 33.1089V33.5831H64.1873V33.1089C64.4059 33.0924 64.5613 33.0464 64.6633 32.974C64.7621 32.905 64.8098 32.7993 64.8098 32.6579C64.8098 32.5426 64.7768 32.4012 64.711 32.2365C64.642 32.0752 64.5373 31.8745 64.3908 31.6438L62.3465 28.2986C62.1069 27.8967 61.9306 27.6335 61.8197 27.5052C61.7089 27.3768 61.5891 27.2814 61.4604 27.222C61.3317 27.1596 61.1612 27.1297 60.9426 27.1297H60.4786V31.173C60.4786 31.6009 60.4937 31.917 60.5174 32.1181C60.5445 32.3158 60.5891 32.4736 60.6491 32.5889C60.7119 32.7043 60.8018 32.8031 60.9216 32.8786C61.0414 32.9575 61.236 33.0334 61.5054 33.1092V33.5835H57.8118V33.1092C58.1769 33.0073 58.4195 32.8951 58.542 32.7667C58.6649 32.6414 58.7455 32.4637 58.7816 32.2334C58.8204 32.0028 58.8385 31.6473 58.8385 31.1733V22.8267C58.8385 22.3853 58.8234 22.0593 58.7967 21.8586C58.7668 21.6544 58.7188 21.4996 58.6501 21.3843C58.5843 21.2724 58.4943 21.1835 58.3838 21.1142C58.273 21.0483 58.0815 20.9725 57.8121 20.8905V20.4162H61.5057V20.8905C61.2483 20.9594 61.0627 21.0322 60.9491 21.1012C60.8355 21.1701 60.7456 21.2594 60.6766 21.3678C60.6107 21.4732 60.5599 21.6314 60.527 21.8452C60.494 22.0559 60.4789 22.3853 60.4789 22.8263L60.47 26.3692L60.4697 26.3686ZM73.7817 33.5828V33.1085C74.048 33.0327 74.2426 32.9603 74.3593 32.8878C74.476 32.8189 74.5659 32.7266 74.6318 32.6178C74.6946 32.509 74.7426 32.3511 74.7725 32.1435C74.7996 31.9393 74.8144 31.6133 74.8144 31.1723V22.8256C74.8144 22.3778 74.7993 22.0518 74.7725 21.8476C74.7426 21.6468 74.6946 21.4886 74.626 21.3802C74.5601 21.2714 74.4702 21.1825 74.3597 21.1135C74.2488 21.0476 74.0542 20.9718 73.7821 20.8898V20.4155H77.6226C78.7272 20.4155 79.6312 20.5504 80.3374 20.8174C81.0409 21.084 81.6367 21.4759 82.1216 21.9962C82.6065 22.5199 82.9685 23.165 83.2081 23.942C83.4476 24.7158 83.5674 25.641 83.5674 26.7145C83.5674 27.7879 83.4565 28.7591 83.229 29.5858C83.0046 30.4122 82.6751 31.1037 82.2441 31.6634C81.87 32.1507 81.4088 32.5526 80.8673 32.8686C80.4153 33.1253 79.8975 33.31 79.3048 33.4184C78.7152 33.5272 77.9307 33.5831 76.9551 33.5831H73.7821L73.7817 33.5828ZM76.4547 32.6871C76.6881 32.7101 77.0323 32.7235 77.4904 32.7235C77.9812 32.7235 78.4184 32.6806 78.8045 32.5886C79.1905 32.4997 79.5409 32.358 79.858 32.1638C80.1723 31.9729 80.4565 31.7029 80.708 31.3604C80.9596 31.0148 81.1631 30.6195 81.3216 30.1716C81.4802 29.7272 81.5941 29.23 81.6689 28.6833C81.7407 28.1366 81.7767 27.5374 81.7767 26.8888C81.7767 25.5817 81.6061 24.5116 81.2647 23.6719C80.9236 22.8321 80.4414 22.2199 79.8189 21.8345C79.1964 21.4461 78.451 21.2549 77.5858 21.2549C77.1878 21.2549 76.8106 21.268 76.4544 21.2944V32.6867L76.4547 32.6871ZM94.5922 20.4155V23.3294H93.7332C93.6433 23.0133 93.5538 22.7367 93.4608 22.4996C93.3681 22.2594 93.2693 22.0617 93.1704 21.9004C93.0716 21.7391 92.9608 21.6108 92.8413 21.515C92.7216 21.4196 92.5809 21.3537 92.4161 21.3174C92.2545 21.281 92.0568 21.2645 91.8293 21.2645H89.0575V26.3188H90.9343C91.1917 26.3188 91.3924 26.2793 91.539 26.197C91.6855 26.118 91.8084 25.9797 91.9041 25.7886C91.9999 25.5944 92.0925 25.2913 92.1793 24.8799H93.0054V28.5841H92.1793C92.0987 28.1987 92.0057 27.9091 91.9069 27.7114C91.808 27.5172 91.6913 27.3754 91.5537 27.2931C91.4161 27.2076 91.2095 27.1678 90.934 27.1678H89.0571V32.7324H91.784C92.0712 32.7324 92.3049 32.706 92.4813 32.65C92.6608 32.5972 92.8135 32.5018 92.9422 32.37C93.0709 32.2382 93.1848 32.067 93.2833 31.8563C93.3822 31.6421 93.4659 31.4215 93.5349 31.1943C93.6008 30.9671 93.6934 30.6311 93.8101 30.1967H94.6783L94.5109 33.5814H86.39V33.1071C86.7551 33.0052 86.9978 32.893 87.1203 32.7646C87.2431 32.6394 87.3238 32.4616 87.3598 32.2314C87.3986 32.0007 87.4168 31.6452 87.4168 31.1713V22.8246C87.4168 22.3833 87.4017 22.0573 87.3749 21.8565C87.345 21.6523 87.297 21.4975 87.2284 21.3822C87.1625 21.2704 87.0726 21.1815 86.9621 21.1122C86.8512 21.0463 86.6597 20.9704 86.3903 20.8884V20.4141H94.5919L94.5922 20.4155ZM104.061 32.6936H106.36C106.612 32.6936 106.821 32.6806 106.991 32.6476C107.159 32.6147 107.306 32.5653 107.426 32.4963C107.545 32.4304 107.653 32.3381 107.749 32.2163C107.845 32.0979 107.937 31.9431 108.024 31.7489C108.114 31.5577 108.195 31.3144 108.276 31.0213C108.354 30.7282 108.452 30.2904 108.569 29.7042H109.455L109.278 33.5831H101.394V33.1089C101.759 33.0069 102.002 32.8947 102.124 32.7664C102.247 32.6411 102.328 32.4633 102.364 32.2331C102.403 32.0025 102.421 31.6469 102.421 31.173V22.8263C102.421 22.385 102.406 22.059 102.379 21.8582C102.349 21.654 102.301 21.4993 102.232 21.3839C102.166 21.2721 102.077 21.1832 101.966 21.1139C101.855 21.048 101.664 20.9721 101.394 20.8901V20.4158H105.088V20.8901C104.83 20.966 104.648 21.0349 104.54 21.0974C104.432 21.1568 104.342 21.2391 104.271 21.341C104.202 21.443 104.148 21.6012 104.115 21.8153C104.079 22.026 104.061 22.3651 104.061 22.8263V32.6943V32.6936ZM120.085 29.0288C120.085 29.7303 120.026 30.336 119.909 30.8432C119.798 31.324 119.633 31.7519 119.409 32.1274C119.205 32.4599 118.95 32.7465 118.645 32.9802C118.343 33.2139 117.975 33.3985 117.541 33.5334C117.11 33.6682 116.601 33.7375 116.017 33.7375C115.308 33.7375 114.703 33.6487 114.197 33.4774C113.691 33.3027 113.272 33.0196 112.943 32.6212C112.611 32.2262 112.374 31.7619 112.227 31.2252C112.081 30.6884 112.009 30.0035 112.009 29.174V22.826C112.009 22.3256 111.994 21.9862 111.964 21.8085C111.934 21.6338 111.892 21.4924 111.838 21.3901C111.781 21.2882 111.7 21.1993 111.595 21.1235C111.491 21.0511 111.293 20.9721 111.009 20.8898V20.4155H114.691V20.8898C114.364 20.9787 114.137 21.0809 114.008 21.1928C113.879 21.3047 113.789 21.4728 113.744 21.7C113.696 21.9238 113.673 22.2992 113.673 22.826V29.6582C113.673 30.2804 113.732 30.8041 113.852 31.2289C113.972 31.6538 114.143 31.9829 114.358 32.2166C114.574 32.4537 114.831 32.625 115.13 32.7303C115.427 32.8357 115.798 32.8885 116.244 32.8885C116.651 32.8885 117.013 32.8096 117.321 32.6514C117.633 32.4932 117.89 32.2564 118.097 31.9335C118.306 31.6109 118.447 31.2156 118.522 30.7482C118.6 30.2773 118.638 29.6483 118.638 28.8549V22.826C118.638 22.2662 118.611 21.8843 118.564 21.6801C118.513 21.4728 118.432 21.3146 118.318 21.2058C118.202 21.0971 117.968 20.9917 117.612 20.8898V20.4155H121.111V20.8898C120.77 20.9852 120.539 21.0905 120.414 21.2058C120.288 21.3211 120.201 21.489 120.153 21.7096C120.108 21.9268 120.084 22.2988 120.084 22.826V29.0292L120.085 29.0288ZM126.513 20.4152V20.8894C126.232 20.9323 126.031 21.0178 125.908 21.1396C125.785 21.2614 125.726 21.4292 125.726 21.64C125.726 21.8211 125.78 22.0449 125.89 22.315C126.001 22.5851 126.16 22.9076 126.363 23.2796L127.635 25.6239L128.89 23.3946C129.079 23.0621 129.219 22.7954 129.312 22.5947C129.405 22.3939 129.47 22.2292 129.51 22.0943C129.546 21.9595 129.567 21.8212 129.567 21.6794C129.567 21.4787 129.513 21.3105 129.408 21.1722C129.303 21.0339 129.127 20.9385 128.881 20.8891V20.4148H132.135V20.8891C131.919 20.9649 131.725 21.0768 131.551 21.2251C131.381 21.3733 131.195 21.5871 131 21.8706C130.803 22.1537 130.524 22.6015 130.162 23.2141L128.181 26.5892L130.408 30.6226C130.722 31.1922 130.95 31.5937 131.087 31.8209C131.225 32.0515 131.353 32.2423 131.473 32.4005C131.593 32.5587 131.722 32.6936 131.859 32.812C131.997 32.9273 132.167 33.0261 132.371 33.1085V33.5828H128.522V33.1085C128.791 33.0591 128.989 32.9767 129.118 32.8649C129.246 32.753 129.312 32.5817 129.312 32.3576C129.312 32.1764 129.27 31.9791 129.184 31.7585C129.1 31.5412 128.971 31.2712 128.794 30.9486L127.208 28.0347L125.531 31.0539C125.25 31.5642 125.109 31.9826 125.109 32.3086C125.109 32.5227 125.163 32.694 125.268 32.8288C125.373 32.9671 125.549 33.0594 125.795 33.1089V33.5831H122.481V33.1089C122.696 33.0399 122.873 32.9541 123.014 32.8552C123.155 32.7564 123.289 32.6281 123.418 32.4733C123.547 32.3185 123.691 32.1243 123.849 31.8841C124.005 31.6469 124.256 31.232 124.604 30.6394L126.672 27.0899L124.199 22.6153C123.966 22.2038 123.789 21.9042 123.666 21.7165C123.547 21.5322 123.436 21.3805 123.334 21.2656C123.232 21.1502 123.14 21.0679 123.059 21.0185C122.978 20.969 122.882 20.9262 122.777 20.8901V20.4158H126.513L126.513 20.4152Z" fill="white"/>
</svg>
